<svg width="266" height="44" viewBox="0 0 266 44" fill="none" xmlns="http://www.w3.org/2000/svg">
<g clip-path="url(#clip0_220_3826)">
<path d="M0 21.4695C0 15.492 2.45126 10.4341 7.31548 6.26045C12.1797 2.08682 18.078 0 24.9722 0C26.6575 0 28.7257 0.282958 31.1004 0.813505C33.475 1.34405 35.1603 1.98071 36.1944 2.65273V14.6431C35.1603 13.4405 33.5133 12.3794 31.3302 11.4598C29.1087 10.5402 27.1554 10.1158 25.3935 10.1158C21.9847 10.1158 19.1122 11.2122 16.7375 13.4405C14.3629 15.6688 13.2138 18.3215 13.2138 21.4695C13.2138 24.9357 14.4012 27.8714 16.7375 30.2765C19.1122 32.6817 21.9464 33.8842 25.2403 33.8842C26.9256 33.8842 28.9555 33.4952 31.2536 32.717C33.5516 31.9389 35.1986 31.0547 36.1944 30.0643V40.746C35.0837 41.6302 33.3601 42.4084 31.0238 43.045C28.6491 43.6817 26.7341 44 25.2403 44C18.2312 44 12.2946 41.8071 7.39208 37.3858C2.45126 32.9646 0 27.6592 0 21.4695Z" fill="#EFEEED"/>
<path d="M40.4458 1.37942H51.3233V42.6559H40.4458V1.37942Z" fill="#EFEEED"/>
<path d="M62.7369 12.5209C61.09 12.5209 59.6729 11.9904 58.4855 10.8939C57.2982 9.8328 56.6854 8.52412 56.6854 6.96785C56.6854 5.41158 57.2599 4.10289 58.4472 3.00643C59.6346 1.90997 61.0517 1.37942 62.7369 1.37942C64.4222 1.37942 65.8393 1.90997 67.0266 3.00643C68.214 4.10289 68.7885 5.41158 68.7885 6.96785C68.7885 8.52412 68.214 9.8328 67.0266 10.8939C65.8776 11.9904 64.4222 12.5209 62.7369 12.5209ZM68.0991 14.5723V42.6559H57.2216V14.5723H68.0991Z" fill="#EFEEED"/>
<path d="M97.1312 15.7395V24.7235C96.4801 24.1222 95.5608 23.5916 94.3735 23.1672C93.1862 22.7428 92.0755 22.5305 90.9647 22.5305C89.2795 22.5305 87.7858 23.1318 86.5601 24.3344C85.2962 25.537 84.6834 27.0225 84.6834 28.7556C84.6834 30.418 85.2962 31.8328 86.5218 33.0354C87.7474 34.2379 89.2412 34.8039 90.9647 34.8039C92.0755 34.8039 93.1862 34.5916 94.3352 34.1318C95.4842 33.7074 96.4035 33.1768 97.1312 32.5402V41.3473C96.2503 42.0547 94.9097 42.6913 93.033 43.2219C91.1945 43.7524 89.3561 44 87.6325 44C83.5726 44 80.0873 42.5498 77.2147 39.6495C74.3421 36.7492 72.8867 33.2476 72.8867 29.1447C72.8867 24.7588 74.3421 21.0096 77.2147 17.9325C80.0873 14.8553 83.5726 13.299 87.6325 13.299C89.5093 13.299 91.3094 13.5113 93.033 13.9003C94.7565 14.3248 96.1354 14.926 97.1312 15.7395Z" fill="#EFEEED"/>
<path d="M101 1.37942H111.954V24.9711L119.614 14.6077H134.628L121.912 28.4019L135.011 42.6206H119.461L111.915 31.9743V42.6206H100.961V1.37942H101Z" fill="#EFEEED"/>
<path d="M163.353 28.4373C163.353 24.2283 165.115 20.6206 168.677 17.6141C172.239 14.6077 176.529 13.1222 181.546 13.1222C186.602 13.1222 190.93 14.6077 194.492 17.6141C198.054 20.6206 199.816 24.2283 199.816 28.4373C199.816 32.6817 198.054 36.3248 194.492 39.3312C190.93 42.3376 186.602 43.8232 181.546 43.8232C176.529 43.8232 172.239 42.3376 168.677 39.3312C165.154 36.3248 163.353 32.717 163.353 28.4373ZM181.585 34.627C183.385 34.627 184.917 34.0257 186.181 32.8585C187.445 31.6559 188.096 30.2058 188.096 28.4727C188.096 26.7749 187.445 25.3248 186.181 24.1222C184.917 22.9196 183.385 22.3537 181.585 22.3537C179.746 22.3537 178.214 22.955 176.989 24.1222C175.763 25.3248 175.15 26.7395 175.15 28.4727C175.15 30.2058 175.763 31.6206 177.027 32.8232C178.253 34.0257 179.785 34.627 181.585 34.627Z" fill="#EFEEED"/>
<path d="M203.34 1.20257H214.294V24.7942L221.954 14.4309H236.968L224.252 28.2251L237.351 42.4437H221.801L214.294 31.8328V42.4791H203.34V1.20257Z" fill="#EFEEED"/>
<path d="M251.752 31.6913H265.694L262.285 39.0129C261.366 40.9936 259.297 42.4084 256.923 42.5145C256.846 42.5145 256.731 42.5145 256.616 42.5145H242.866C242.79 42.5145 242.751 42.4084 242.79 42.373L246.083 35.2283C247.003 33.2122 249.071 31.8328 251.446 31.7267C251.561 31.6913 251.637 31.6913 251.752 31.6913Z" fill="#43BBC4"/>
<path d="M155.08 1.37942H163.277H164.656V11H155.157V42.6559H142.901V11.1768H139.76C139.262 11.1768 138.726 11.1061 138.266 11C137.079 10.717 136.045 10.1158 135.241 9.23151L130.453 4.03215L127.963 1.34405H143.054H155.08V1.37942Z" fill="#EDEDED"/>
</g>
<defs>
<clipPath id="clip0_220_3826">
<rect width="266" height="44" fill="white"/>
</clipPath>
</defs>
</svg>
