<?xml version="1.0" encoding="utf-8"?>
<!-- Generator: Adobe Illustrator 25.2.1, SVG Export Plug-In . SVG Version: 6.00 Build 0)  -->
<svg version="1.1" id="Layer_1" xmlns="http://www.w3.org/2000/svg" xmlns:xlink="http://www.w3.org/1999/xlink" x="0px" y="0px"
	 viewBox="0 0 463.069 49.406" style="enable-background:new 0 0 463.069 49.406;" xml:space="preserve">
<style type="text/css">
	.st0{fill:#FFFFFF;}
</style>
<path class="st0" d="M406.533,31.821c0,11.084-6.374,17.585-17.151,17.585c-10.465,0-16.655-6.008-16.655-16.222
	c0-11.086,6.315-17.586,17.149-17.586C400.342,15.598,406.533,21.604,406.533,31.821 M384.243,32.378
	c0,7.491,1.548,10.401,5.511,10.401c3.652,0,5.264-3.156,5.264-10.154c0-7.369-1.551-10.403-5.264-10.403
	C385.853,22.222,384.243,25.194,384.243,32.378"/>
<path class="st0" d="M411.8,16.401h11.022v2.044c0.371-0.124,0.68-0.248,0.864-0.309c5.451-1.981,7.248-2.416,9.783-2.416
	c3.159,0,5.637,0.93,7.31,2.725c5.94-2.104,8.483-2.725,11.331-2.725c7.985,0,10.96,3.22,10.96,11.828v21.053h-11.393V28.167
	c0-3.283-1.302-4.521-4.831-4.521c-1.112,0-1.733,0.063-3.839,0.496c0.122,0.557,0.122,0.742,0.122,2.105v22.354h-11.392V27.486
	c0-2.911-1.175-3.84-4.704-3.84c-0.992,0-2.539,0.186-3.84,0.435v24.52H411.8V16.401z"/>
<path class="st0" d="M363.808,23.152c2.044,0,4.333,0.248,6.007,0.618v-6.316c-5.142-1.237-7.061-1.548-9.599-1.548
	c-10.34,0-17.092,6.687-17.092,16.968c0,0.52,0.021,1.025,0.048,1.525c4.161,0.908,6.265,3.8,6.265,8.675
	c0,1.231-0.154,2.339-0.44,3.328c2.506,1.765,5.777,2.693,9.734,2.693c2.352,0,4.891-0.434,11.084-1.92v-6.068
	c-1.797,0.311-3.778,0.496-5.886,0.496c-6.376,0-9.286-2.848-9.286-9.165C354.643,26.308,357.74,23.152,363.808,23.152"/>
<path class="st0" d="M241.877,23.585c-2.539-0.682-5.758-1.052-8.42-1.052c-2.849,0-4.086,0.681-4.086,2.29
	c0,1.3,0.619,1.857,3.343,2.909l4.21,1.55c4.458,1.672,6.565,4.645,6.565,9.351c0,6.686-4.955,10.525-13.562,10.525
	c-3.282,0-6.254-0.495-11.207-1.856v-5.945c3.28,0.805,6.254,1.175,9.287,1.175c3.284,0,4.521-0.681,4.521-2.477
	c0-1.298-0.559-1.92-2.725-2.846l-4.271-1.735c-4.707-1.981-6.811-4.892-6.811-9.472c0-6.502,4.582-10.157,12.571-10.157
	c2.784,0,5.384,0.434,10.586,1.796V23.585z"/>
<path class="st0" d="M265.779,48.601v-2.168c-5.264,2.168-6.749,2.602-9.165,2.602c-5.944,0-9.906-4.087-9.906-10.218
	c0-6.378,3.592-9.845,10.958-10.526c2.477-0.186,4.954-0.309,7.741-0.309v-1.609c0-2.54-1.425-3.469-5.325-3.469
	c-3.59,0-7.059,0.311-10.527,0.867v-5.759c6.875-1.61,10.961-2.228,14.18-2.228c9.043,0,12.445,3.221,12.445,11.827v20.991H265.779z
	 M265.407,33.678c-6.007,0.06-7.741,0.992-7.741,4.271c0,2.602,1.613,4.024,4.647,4.024c1.053,0,2.229-0.124,3.095-0.37V33.678z"/>
<rect x="282.746" y="0.675" class="st0" width="11.394" height="47.926"/>
<path class="st0" d="M328.134,47.238c-6.935,1.425-9.905,1.858-12.506,1.858c-4.396,0-8.486-1.24-11.208-3.406
	c-3.59-2.785-5.141-6.688-5.141-12.879c0-10.65,6.006-17.028,16.039-17.028c6.933,0,11.515,2.972,13.433,8.669
	c0.747,2.167,0.93,4.396,0.93,10.588h-19.441c0,5.077,2.598,6.998,9.474,6.998c2.975,0,5.512-0.125,8.421-0.495V47.238z
	 M318.909,28.477v-0.929c0-4.148-1.302-6.006-4.21-6.006c-2.91,0-4.46,2.104-4.46,6.19v1.178h8.67V28.477z"/>
<path class="st0" d="M346.405,43.09c0,4.023-2.292,6.192-6.565,6.192c-4.272,0-6.438-2.106-6.438-6.131
	c0-4.025,2.293-6.192,6.563-6.192C344.239,36.96,346.405,39.002,346.405,43.09"/>
<polygon class="st0" points="0,0 11.555,0 11.555,30.894 22.541,15.948 34.095,15.948 22.919,29.386 33.908,48.601 20.344,48.601 
	11.555,31.335 11.555,48.601 0,48.601 "/>
<path class="st0" d="M63.919,47.22c-7.034,1.445-10.046,1.884-12.683,1.884c-4.458,0-8.603-1.258-11.365-3.455
	c-3.642-2.824-5.213-6.781-5.213-13.059c0-10.801,6.091-17.269,16.262-17.269c7.035,0,11.681,3.016,13.627,8.791
	c0.754,2.197,0.941,4.458,0.941,10.738H45.773c0,5.149,2.636,7.096,9.607,7.096c3.013,0,5.587-0.125,8.539-0.503V47.22z
	 M54.563,28.192v-0.94c0-4.207-1.319-6.09-4.269-6.09c-2.953,0-4.521,2.134-4.521,6.279v1.192h8.79V28.192z"/>
<path class="st0" d="M102.287,48.601H91.111v-2.073c-0.379,0.126-0.692,0.253-0.819,0.315c-5.587,2.008-7.409,2.448-9.919,2.448
	c-3.077,0-6.029-1.257-7.661-3.202c-1.633-2.008-2.199-4.145-2.199-8.792V15.948h11.554v20.723c0,3.326,1.318,4.583,4.897,4.583
	c1.068,0,2.262-0.125,3.768-0.44V15.948h11.555V48.601z"/>
<polygon class="st0" points="109.321,0 120.874,0 120.874,30.894 131.863,15.948 143.417,15.948 132.24,29.386 143.228,48.601 
	129.666,48.601 120.874,31.335 120.874,48.601 109.321,48.601 "/>
<path class="st0" d="M173.24,47.22c-7.033,1.445-10.048,1.884-12.684,1.884c-4.458,0-8.602-1.258-11.365-3.455
	c-3.643-2.824-5.213-6.781-5.213-13.059c0-10.801,6.091-17.269,16.264-17.269c7.031,0,11.679,3.016,13.626,8.791
	c0.755,2.197,0.941,4.458,0.941,10.738h-19.716c0,5.149,2.636,7.096,9.607,7.096c3.012,0,5.589-0.125,8.54-0.503V47.22z
	 M163.883,28.192v-0.94c0-4.207-1.318-6.09-4.269-6.09c-2.951,0-4.521,2.134-4.521,6.279v1.192h8.79V28.192z"/>
<path class="st0" d="M180.211,15.948h11.176v2.073c0.378-0.125,0.692-0.252,0.818-0.313c5.461-1.949,7.408-2.449,9.92-2.449
	c3.077,0,6.027,1.255,7.661,3.202c1.695,2.008,2.198,4.144,2.198,8.791v21.35h-11.555V27.88c0-3.329-1.319-4.585-4.898-4.585
	c-1.066,0-2.197,0.127-3.766,0.439v24.867h-11.554V15.948z"/>
</svg>
