<?xml version="1.0" encoding="UTF-8"?>
<svg id="Layer_1" xmlns="http://www.w3.org/2000/svg" version="1.1" viewBox="0 0 305.5 123.9">
  <!-- Generator: Adobe Illustrator 29.1.0, SVG Export Plug-In . SVG Version: 2.1.0 Build 142)  -->
  <defs>
    <style>
      .st0 {
        fill: #fff;
      }
    </style>
  </defs>
  <path class="st0" d="M301.9,71c-.7-.6-1.7-2.3-2.9-5l-17.9-40.8h-1.4l-15,35.3c-2.2,5.3-3.8,8.5-4.8,9.7-.9,1.1-2.2,1.8-3.9,2-2.4-.2-3.9-.7-4.6-1.4-.8-.7-1.2-2.4-1.2-5v-32c0-2.6.4-4.2,1.2-5,.8-.8,2.5-1.3,5.2-1.5v-1.3h-14.3l-16.1,35.9-16.5-35.9h-52.1v1.3c1.7,0,2.8.1,3.4.4,1,.4,1.5,1.1,1.5,2.1s-.1.9-.4,1.4c-.4.9-1.2,2-2.4,3.4l-8.1,9.8-7.4-10.8c-.4-.6-.7-1.1-1-1.6-.5-.9-.7-1.7-.7-2.3,0-1,.5-1.7,1.4-2,.6-.2,2-.4,4.1-.4v-1.3h-21.6v1.3c2.3,0,4.2.8,5.6,2,1.4,1.2,3.8,4.4,7.2,9.4l7.9,11.6-11.1,13.8c-3,3.7-5,5.9-6,6.7-.9.7-2.1,1.2-3.7,1.4-1.4-.2-2.4-.6-3-1.2-.7-.6-1.7-2.3-2.9-5l-17.9-40.8h-1.4l-15,35.3c-2.2,5.3-3.8,8.5-4.8,9.7-.7.9-1.7,1.5-3,1.9h0c-3.4-.4-5.6-1.1-6.6-2-1-.9-1.5-3.1-1.5-6.4V22.8c0-3.3.5-5.4,1.5-6.4s3.2-1.6,6.6-1.9v-1.7h-18.3l-20.6,45.8L18.4,12.8H.2v1.7c3.7.2,6.1.8,7.1,1.8s1.6,3.2,1.6,6.5v37.3c0,4.8-.5,7.9-1.6,9.3-1.1,1.3-3.5,2.2-7.3,2.6v1.7h21.6v-1.7c-3.3-.4-5.5-1-6.4-2-1.5-1.5-2.2-4.8-2.2-9.8V23.4l23.1,50.2h1.3l23.6-52.4v41.3c0,3.9-.5,6.4-1.4,7.4-.9,1-3.2,1.7-6.9,2v1.7h38.8v-1.3c-1.7-.1-2.8-.3-3.4-.6-1-.5-1.5-1.3-1.5-2.5s.2-1.4.5-2.5c.4-1,1.5-3.9,3.3-8.6h19l2.9,6.9c.4,1,.7,1.9,1,2.8.2.9.4,1.5.4,1.9,0,1-.3,1.7-.9,2-.6.3-2,.5-4.1.7v1.3h33.6v-1.3c-1.7-.1-3-.3-3.7-.6-1.2-.4-1.8-1.1-1.8-2.2s.4-1.4,1.2-2.6c.5-.7,1.3-1.9,2.6-3.4l8.4-10.6c4.8,7.1,7.8,11.5,8.8,13.3,1.1,1.7,1.6,3,1.6,3.8s-.4,1.5-1.2,1.8c-.8.3-2.2.5-4.3.5v1.3h58.3v-1.3c-2.6-.3-4.3-.8-5-1.6-1.1-1.2-1.7-3.8-1.7-7.7v-28.7l18.1,39.3h1l18.4-41v32.3c0,3-.4,5-1.1,5.8-.7.8-2.5,1.3-5.4,1.6v1.3h33.6v-1.3c-1.7-.1-2.8-.3-3.4-.6-1-.5-1.5-1.3-1.5-2.5s.2-1.4.5-2.5c.4-1,1.5-3.9,3.3-8.6h19l2.9,6.9c.4,1,.7,1.9,1,2.8s.4,1.5.4,1.9c0,1-.3,1.7-.9,2s-2,.5-4.1.7v1.3h18.3v-1.3c-1.7-.2-2.9-.7-3.6-1.3ZM91.6,55.2l8.3-19.8,8.2,19.8h-16.5ZM181.3,65.9c0,2.8-.4,4.5-1.3,5.2-.8.6-2.6,1-5.2,1.3-1.8-.3-3.1-.7-4-1.2-1-.6-2.2-1.9-3.6-4.1l-13.6-19.8,10.4-13.1c2.5-3,4.5-5,6.2-5.9,1-.6,2.5-.9,4.3-.9,2.9.1,4.7.6,5.6,1.3.9.8,1.3,2.5,1.3,5.1v32ZM202.3,63.1c0,3.8-.4,6.2-1.3,7.3-.8,1-2.7,1.7-5.6,2-2.8-.2-4.6-.6-5.5-1.3-.9-.7-1.3-2.4-1.3-5.2v-32c0-2.6.4-4.4,1.3-5.1.9-.8,2.7-1.2,5.6-1.3,2.9.1,4.7.6,5.5,1.4.8.8,1.2,2.5,1.2,5.1v29.2ZM270.3,55.2l8.3-19.8,8.2,19.8h-16.5Z"/>
  <path class="st0" d="M133.9,110.4c-.6-.6-1.2-1.1-2-1.4-.8-.4-1.6-.6-2.6-.7h0c1.7-.4,2.9-1.1,3.8-2.2.9-1.1,1.3-2.3,1.3-3.8s-.3-2.9-.8-3.9c-.5-1-1.3-1.7-2.1-2.3-.9-.5-1.8-.9-2.9-1.1-1.1-.2-2.2-.3-3.2-.3h-8.2v28.3h9c1,0,2-.1,3.1-.3,1.1-.2,2.1-.6,3.1-1.2.9-.6,1.7-1.4,2.4-2.4.6-1,.9-2.4.9-4s-.2-1.9-.5-2.7c-.3-.8-.7-1.5-1.3-2.1ZM119.8,97.2h5.8c.8,0,1.6,0,2.4.2.7.2,1.4.4,2,.8s1,.9,1.3,1.6c.3.7.5,1.5.5,2.5s0,1-.2,1.5c-.2.5-.5,1.1-1,1.5-.5.5-1.1.9-2,1.2-.9.3-2,.5-3.3.5h-5.5v-9.8ZM132.8,117c-.2.6-.5,1.2-1,1.8-.5.6-1.2,1-2.2,1.4-.9.4-2.2.6-3.7.6h-6v-11.3h6.4c.8,0,1.6.1,2.5.3.8.2,1.5.6,2.2,1,.6.5,1.2,1.1,1.6,1.8.4.7.6,1.6.6,2.7s0,1.1-.3,1.7Z"/>
  <path class="st0" d="M168.8,98.3c-1.3-1.3-2.8-2.4-4.6-3.1-1.8-.7-3.8-1.1-5.9-1.1s-4.1.4-5.9,1.1c-1.8.7-3.3,1.8-4.6,3.1s-2.3,2.9-3,4.7c-.7,1.8-1.1,3.8-1.1,6s.4,4.2,1.1,6c.7,1.8,1.7,3.4,3,4.7s2.8,2.3,4.6,3.1c1.8.7,3.8,1.1,5.9,1.1s4.1-.4,5.9-1.1c1.8-.7,3.3-1.8,4.6-3.1s2.3-2.9,3-4.7c.7-1.8,1.1-3.8,1.1-6s-.4-4.1-1.1-6-1.7-3.4-3-4.7ZM169.4,113.9c-.6,1.5-1.4,2.8-2.4,4s-2.3,2-3.8,2.6c-1.5.6-3.1,1-5,1s-3.5-.3-5-1c-1.5-.6-2.7-1.5-3.8-2.6s-1.8-2.4-2.4-4c-.6-1.5-.8-3.2-.8-4.9s.3-3.4.8-4.9c.6-1.5,1.4-2.8,2.4-4s2.3-2,3.8-2.6c1.5-.6,3.1-1,5-1s3.5.3,5,1c1.5.6,2.7,1.5,3.8,2.6s1.8,2.4,2.4,4c.6,1.5.8,3.2.8,4.9s-.3,3.4-.8,4.9Z"/>
  <path class="st0" d="M189.8,94.8l-12.4,28.3h2.8l3.2-7.5h15l3.1,7.5h3l-11.9-28.3h-2.7ZM184.5,113.2l6.6-15.5,6.4,15.5h-13Z"/>
  <polygon class="st0" points="205.4 97.2 215.1 97.2 215.1 123.2 217.8 123.2 217.8 97.2 227.4 97.2 227.4 94.8 205.4 94.8 205.4 97.2"/>
  <path class="st0" d="M247.7,109.4c-1.1-.6-2.3-1-3.5-1.3s-2.4-.7-3.5-1.2c-1.1-.4-2-1-2.7-1.8s-1.1-1.8-1.1-3.3.2-1.7.5-2.4c.3-.7.8-1.2,1.4-1.7.6-.4,1.2-.8,2-1,.8-.2,1.6-.3,2.4-.3,1.2,0,2.3.2,3.2.7.9.5,1.7,1.2,2.3,2.1l2.3-1.6c-1-1.3-2.1-2.2-3.4-2.7-1.3-.5-2.8-.8-4.3-.8s-2.3.2-3.4.5c-1.1.3-2.1.8-2.9,1.5-.8.7-1.5,1.5-2,2.4-.5,1-.7,2.1-.7,3.3s.2,2.5.6,3.4c.4.9,1,1.7,1.7,2.3.7.6,1.5,1.1,2.3,1.5.9.4,1.8.7,2.7,1,.9.3,1.8.6,2.7.9.9.3,1.6.6,2.3,1.1.7.4,1.2.9,1.7,1.6.4.6.6,1.5.6,2.4s-.2,1.6-.5,2.3c-.3.7-.8,1.3-1.4,1.7-.6.5-1.2.9-2,1.1-.8.3-1.6.4-2.5.4-1.4,0-2.7-.3-3.8-.9-1.1-.6-2-1.5-2.7-2.7l-2.5,1.7c1.1,1.5,2.5,2.6,4,3.3,1.6.7,3.3,1,5.2,1s2.3-.2,3.3-.5c1.1-.3,2-.9,2.8-1.5.8-.7,1.5-1.5,1.9-2.5.5-1,.7-2.1.7-3.4s-.4-3.1-1.1-4.1c-.7-1-1.6-1.8-2.7-2.3Z"/>
  <path class="st0" d="M181.3,1.5h7.4c.7,0,1.3.6,1.3,1.3v7.4c0,.7-.6,1.3-1.3,1.3h-7.4c-.7,0-1.3-.6-1.3-1.3V2.9c0-.7.6-1.3,1.3-1.3Z" transform="translate(49.5 132.7) rotate(-45)"/>
</svg>