<?xml version="1.0" encoding="utf-8"?>
<!-- Generator: Adobe Illustrator 24.0.0, SVG Export Plug-In . SVG Version: 6.00 Build 0)  -->
<!DOCTYPE svg PUBLIC "-//W3C//DTD SVG 1.1//EN" "http://www.w3.org/Graphics/SVG/1.1/DTD/svg11.dtd" [
	<!ENTITY ns_extend "http://ns.adobe.com/Extensibility/1.0/">
	<!ENTITY ns_ai "http://ns.adobe.com/AdobeIllustrator/10.0/">
	<!ENTITY ns_graphs "http://ns.adobe.com/Graphs/1.0/">
	<!ENTITY ns_vars "http://ns.adobe.com/Variables/1.0/">
	<!ENTITY ns_imrep "http://ns.adobe.com/ImageReplacement/1.0/">
	<!ENTITY ns_sfw "http://ns.adobe.com/SaveForWeb/1.0/">
	<!ENTITY ns_custom "http://ns.adobe.com/GenericCustomNamespace/1.0/">
	<!ENTITY ns_adobe_xpath "http://ns.adobe.com/XPath/1.0/">
]>
<svg version="1.1" id="logo" xmlns:x="&ns_extend;" xmlns:i="&ns_ai;" xmlns:graph="&ns_graphs;"
	 xmlns="http://www.w3.org/2000/svg" xmlns:xlink="http://www.w3.org/1999/xlink" x="0px" y="0px" viewBox="0 0 418.5 63.8"
	 style="enable-background:new 0 0 418.5 63.8;" xml:space="preserve">
<style type="text/css">
	.st0{fill:#FFFFFF;}
	.st1{opacity:0.2;}
</style>
<metadata>
	<sfw  xmlns="&ns_sfw;">
		<slices></slices>
		<sliceSourceBounds  bottomLeftOrigin="true" height="63.8" width="418.5" x="17.5" y="-71.6"></sliceSourceBounds>
		<optimizationSettings>
			<targetSettings  fileFormat="JPEGFormat" targetSettingsID="0">
				
					<JPEGFormat  blurAmount="0" embedICCProfile="false" matteColor="#FFFFFF" noMatteColor="true" optimized="true" progressive="false" quality="100">
					</JPEGFormat>
			</targetSettings>
		</optimizationSettings>
	</sfw>
</metadata>
<g>
	<g>
		<path class="st0" d="M122.2,46.2h10.3V28.1c0-1.7-0.3-3.3-1-4.7c-0.7-1.5-1.7-2.8-3-3.9c-1.3-1.1-2.9-2.1-4.9-2.7
			c-1.9-0.7-4.2-1-6.7-1c-1.2,0-2.3,0.1-3.3,0.4c-1,0.3-1.9,0.6-2.7,1c-0.9,0.4-1.7,0.9-2.4,1.4l-0.3,0.3h-1.4l-0.3-0.3
			c-0.7-0.5-1.5-1-2.4-1.4c-0.8-0.3-1.8-0.7-3-1c-1.2-0.3-2.5-0.5-4.1-0.5c-2.2,0-4.2,0.1-6,0.3c-1.8,0.2-3.5,0.4-5,0.6
			c-1.3,0.2-2.5,0.5-3.6,0.7v28.9h10.3V23.7l1-0.1c0.3,0,0.6-0.1,0.9-0.2l0.3,0c0.2,0,0.5,0,0.9-0.1c0.4,0,0.8-0.1,1.3-0.1
			c1.4,0,2.6,0.5,3.7,1.5c1.1,1,1.6,2.2,1.6,3.5v18.1h10.3V23.7l1.1-0.1c0.3,0,0.6-0.1,0.9-0.2l0.3,0c0.3,0,0.6,0,0.9-0.1
			c1.9-0.2,3.5,0.2,4.8,1.4c1.1,1,1.6,2.1,1.6,3.4V46.2z"/>
	</g>
	<g>
		<path class="st0" d="M142.2,46.2h10.3V17.6h-10.3V46.2z M147.4,1.4c-0.8,0-1.6,0.1-2.3,0.4c-0.7,0.3-1.4,0.7-1.9,1.2
			c-0.5,0.5-1,1.1-1.3,1.7c-0.3,0.6-0.4,1.3-0.4,2c0,0.7,0.1,1.3,0.4,2c0.3,0.7,0.7,1.2,1.3,1.7c0.5,0.5,1.2,0.9,1.9,1.2
			c1.4,0.6,3.3,0.6,4.7,0c0.7-0.3,1.4-0.7,1.9-1.2c0.5-0.5,0.9-1.1,1.3-1.7c0.3-0.6,0.4-1.3,0.4-2c0-0.7-0.1-1.3-0.4-2
			c-0.3-0.6-0.7-1.2-1.3-1.7c-0.5-0.5-1.2-0.9-1.9-1.2C149,1.6,148.2,1.4,147.4,1.4z"/>
	</g>
	<g>
		<path class="st0" d="M183.4,46.2h10.3V28.8c0-1.9-0.4-3.6-1-5.2c-0.7-1.6-1.7-3-3-4.1c-1.3-1.2-3-2.1-4.9-2.8c-2-0.7-4.3-1-6.9-1
			c-2.2,0-4.2,0.1-6.1,0.3c-1.9,0.2-3.7,0.4-5.2,0.6c-1.4,0.2-2.7,0.5-4,0.7v28.9h10.3V23.7l1.1-0.1c0.3,0,0.7-0.1,1.1-0.2l0.2,0
			c0.3,0,0.7,0,1.1-0.1c0.5,0,1-0.1,1.5-0.1c1.6,0,2.9,0.5,4,1.6c1.1,1.1,1.6,2.4,1.6,4V46.2z"/>
	</g>
	<g>
		<path class="st0" d="M218,16.3c-2.5,0-4.8,0.4-6.8,1.2c-2,0.8-3.8,1.9-5.3,3.3c-1.5,1.4-2.6,3.1-3.5,5c-0.8,1.9-1.2,3.9-1.2,6.1
			s0.4,4.2,1.2,6.1c0.8,1.9,2,3.5,3.6,4.9c1.6,1.4,3.5,2.5,5.7,3.3c2.2,0.8,4.8,1.2,7.6,1.2c2.2,0,4.3-0.1,6.1-0.3
			c1.8-0.2,3.4-0.4,4.9-0.6c1.2-0.2,2.4-0.5,3.4-0.7V5.1h-10.3v11.6l-1.3-0.1c-0.4,0-0.8-0.1-1.2-0.2c-0.4,0-0.8,0-1.3-0.1
			C218.9,16.3,218.5,16.3,218,16.3z M219.2,40c-2.1,0-3.9-0.8-5.3-2.3c-1.4-1.5-2.1-3.4-2.1-5.8c0-2.3,0.7-4.3,2.1-5.8
			c1.4-1.5,3.2-2.3,5.3-2.3c0.4,0,0.8,0,1.1,0c0.4,0,0.7,0.1,1,0.1l0.2,0c0.2,0.1,0.5,0.1,0.7,0.2l1,0.2v15.1l-1,0.2
			c-0.3,0-0.5,0.1-0.8,0.1c-0.2,0-0.5,0.1-0.9,0.1C220,39.9,219.6,40,219.2,40z"/>
	</g>
	<g>
		<path class="st0" d="M241.3,43.3c1,0.6,2.1,1.2,3.2,1.8c1.3,0.6,2.8,1.1,4.6,1.6c1.7,0.5,3.6,0.7,5.5,0.7c2.7,0,5-0.3,7-0.9
			c1.9-0.6,3.6-1.4,4.8-2.4c1.2-0.9,2.2-2,2.8-3.2c0.6-1.1,0.9-2.3,0.9-3.5c0-1.7-0.3-3-1-4.1c-0.7-1.1-1.6-2-2.7-2.6
			c-1.1-0.7-2.4-1.2-3.7-1.6c-1.4-0.4-2.7-0.7-3.9-1c-1.2-0.3-2.3-0.5-3.1-0.7c-1.7-0.5-2.1-1.4-2.1-2.1c0-0.8,0.4-1.4,1.3-2
			c0.7-0.5,1.8-0.7,3.3-0.7c1.2,0,2.3,0.2,3.4,0.4c1.1,0.3,2,0.6,2.9,1c0.6,0.3,1.1,0.5,1.6,0.8l3.2-5.7c-0.8-0.5-1.7-1-2.7-1.4
			c-1.2-0.5-2.6-1-4.3-1.4c-1.6-0.4-3.4-0.6-5.4-0.6c-2.4,0-4.6,0.3-6.4,0.8c-1.8,0.6-3.3,1.3-4.5,2.2c-1.2,0.9-2,1.9-2.6,3.1
			c-0.6,1.1-0.9,2.3-0.9,3.5c0,1.7,0.3,3,1,4.1c0.7,1.1,1.6,2,2.7,2.6c1.1,0.7,2.4,1.2,3.7,1.6c1.4,0.4,2.7,0.7,3.9,1
			c1.2,0.3,2.3,0.5,3.1,0.7c1.7,0.5,2.1,1.4,2.1,2.1c0,1-0.9,1.7-1.6,2.2c-0.9,0.6-2.3,0.9-4.3,0.9c-1.2,0-2.4-0.2-3.6-0.6
			c-1.1-0.4-2.2-0.8-3.2-1.3c-0.7-0.3-1.4-0.7-2-1.1L241.3,43.3z M256.1,25.6L256.1,25.6L256.1,25.6z"/>
	</g>
	<g>
		<path class="st0" d="M293.2,15.7c-2.8,0-5.3,0.4-7.6,1.2c-2.2,0.8-4.1,1.9-5.7,3.4c-1.5,1.4-2.7,3.1-3.6,5c-0.8,1.9-1.2,4-1.2,6.3
			s0.4,4.3,1.2,6.3c0.8,1.9,2,3.6,3.6,5c1.6,1.4,3.5,2.6,5.7,3.4c2.2,0.8,4.8,1.2,7.6,1.2c1.8,0,3.3-0.2,4.7-0.5
			c1.4-0.4,2.6-0.8,3.7-1.2c0.8-0.3,1.5-0.7,2.1-1.1l-3.5-6.3c-0.3,0.2-0.6,0.3-0.9,0.4c-0.6,0.3-1.3,0.6-2.1,0.8
			c-0.9,0.3-1.8,0.4-2.8,0.4c-2.5,0-4.6-0.8-6.2-2.4c-1.6-1.6-2.4-3.6-2.4-6s0.8-4.4,2.4-6c1.6-1.6,3.7-2.4,6.2-2.4
			c0.9,0,1.7,0.1,2.5,0.3c0.7,0.2,1.4,0.4,2.1,0.7c0.3,0.1,0.6,0.3,0.9,0.4l3.5-6.3c-0.6-0.4-1.4-0.7-2.1-1.1
			c-0.9-0.4-2.1-0.7-3.5-1.1C296.4,15.9,294.9,15.7,293.2,15.7z"/>
	</g>
	<g>
		<path class="st0" d="M322.7,28.1c-2.5,0-4.7,0.3-6.6,0.8c-1.8,0.5-3.3,1.3-4.5,2.1c-1.1,0.9-2,1.8-2.5,2.9
			c-0.5,1.1-0.8,2.3-0.8,3.5c0,1.4,0.3,2.6,0.8,3.8c0.6,1.2,1.4,2.2,2.6,3.1c1.2,0.9,2.8,1.7,4.7,2.2c2,0.5,4.4,0.8,7.1,0.8
			c2.1,0,4.2-0.1,6.1-0.3c1.9-0.2,3.6-0.4,5.2-0.6c1.4-0.2,2.7-0.5,3.9-0.7V29.7c0-2.1-0.4-4-1.1-5.7c-0.7-1.7-1.7-3.2-3-4.4
			c-1.3-1.2-3-2.2-4.9-2.9c-2-0.7-4.3-1.1-6.9-1.1c-1.8,0-3.3,0.2-4.7,0.5c-1.4,0.3-2.6,0.7-3.7,1.1c-0.8,0.3-1.5,0.7-2.1,1.1
			l3.5,6.3c0.3-0.1,0.6-0.3,0.8-0.4c0.6-0.3,1.4-0.5,2.2-0.7c0.8-0.2,1.7-0.3,2.7-0.3c1.3,0,2.3,0.1,3.2,0.4c0.8,0.3,1.5,0.6,2,0.9
			c0.6,0.4,1,0.9,1.4,1.5l0.2,0.3v2.3l-1.3-0.1c-0.5,0-1.1-0.1-1.6-0.2c-0.5,0-1,0-1.6-0.1C323.6,28.2,323.1,28.1,322.7,28.1z
			 M323.6,41.2c-1.4,0-2.5-0.3-3.3-1c-1.1-0.9-1.3-1.9-1.3-2.6c0-1,0.4-1.9,1.3-2.6c0.8-0.7,1.9-1.1,3.3-1.1h4.9v6.9l-1.1,0.1
			c-0.4,0-0.7,0.1-1.1,0.1c-0.3,0-0.7,0.1-1.2,0.1C324.8,41.2,324.2,41.2,323.6,41.2z"/>
	</g>
	<g>
		<path class="st0" d="M348.5,58.1h10.3V46.4l1.3,0.1c0.4,0,0.8,0.1,1.2,0.2c0.4,0,0.8,0,1.3,0.1c0.5,0,1,0.1,1.5,0.1
			c2.5,0,4.8-0.4,6.8-1.2c2-0.8,3.8-1.9,5.3-3.3c1.5-1.4,2.6-3.1,3.5-5c0.8-1.9,1.2-3.9,1.2-6.1s-0.4-4.2-1.2-6.1
			c-0.8-1.9-2-3.5-3.6-4.9c-1.6-1.4-3.5-2.5-5.7-3.3c-2.2-0.8-4.8-1.2-7.6-1.2c-2.2,0-4.3,0.1-6.1,0.3c-1.8,0.2-3.4,0.4-4.9,0.6
			c-1.2,0.2-2.4,0.4-3.4,0.7V58.1z M362.8,39.3c-0.4,0-0.8,0-1.1,0c-0.4,0-0.8-0.1-1.1-0.2c-0.3,0-0.5-0.1-0.8-0.1l-1-0.2V23.7
			l1-0.2c0.2,0,0.4-0.1,0.7-0.2l0.3,0c0.2,0,0.5,0,0.8-0.1c0.4,0,0.8-0.1,1.2-0.1c2.1,0,3.9,0.8,5.3,2.3c1.4,1.5,2.1,3.4,2.1,5.8
			c0,2.3-0.7,4.3-2.1,5.8C366.7,38.6,364.9,39.3,362.8,39.3z"/>
	</g>
	<g>
		<path class="st0" d="M402.6,15.7c-2.5,0-4.8,0.4-6.7,1.2c-2,0.8-3.7,1.8-5.1,3.2c-1.4,1.4-2.5,3-3.2,5c-0.8,1.9-1.2,4.1-1.2,6.6
			c0,2.2,0.4,4.3,1.2,6.3c0.8,1.9,2,3.6,3.5,5c1.5,1.4,3.4,2.5,5.6,3.4c2.2,0.8,4.7,1.2,7.4,1.2c1.8,0,3.3-0.2,4.7-0.5
			c1.4-0.4,2.6-0.8,3.7-1.2c0.7-0.3,1.5-0.7,2.1-1.1l-3.5-6c-0.3,0.2-0.6,0.3-0.9,0.5c-0.6,0.3-1.3,0.6-2.1,0.8
			c-1.7,0.5-3.9,0.5-5.7,0c-0.9-0.3-1.6-0.6-2.3-1c-0.7-0.4-1.2-0.9-1.7-1.4c-0.4-0.6-0.7-1-0.8-1.5l-0.4-1.5h17.6l3.6-3.1V30
			c0-2-0.4-3.9-1.1-5.6c-0.8-1.7-1.8-3.2-3.2-4.5c-1.4-1.3-3.1-2.3-5-3.1C407.2,16.1,405,15.7,402.6,15.7z M407.5,29.4h-9.9v-1.2
			c0-1.7,0.5-3.1,1.4-4.1c0.9-1,2.1-1.5,3.6-1.5c1.4,0,2.6,0.5,3.6,1.5c0.9,1,1.4,2.3,1.4,4.1V29.4z"/>
	</g>
</g>
<g>
	<g class="st1">
	</g>
	<g class="st1">
	</g>
</g>
<path class="st0" d="M48.5,0H15.3C6.9,0,0,6.9,0,15.3v33.2C0,57,6.9,63.8,15.3,63.8h33.2c8.4,0,15.3-6.9,15.3-15.3V15.3
	C63.8,6.9,57,0,48.5,0z M35.8,27.3l-0.4,2.5l-2.9,16.5h-5.6l3-17l0.4-2.3c0.3-1.7,0.2-3-0.3-3.8c-0.6-0.9-1.7-1.4-3.4-1.4l-1,0h-5.7
	l0,0h0l-1,5.5c0,0,0,0.1,0,0.1l-0.1,0.7l-3.2,18.1H9.8l3.3-18.8l1.9-11l13.5,0c2.9,0.1,5.1,1.1,6.3,3C36.1,21.4,36.4,24,35.8,27.3z
	 M54,27.3l-0.7,3.9l-2.7,15.1h-5.6l2.7-15.5l0.7-3.7c0.3-1.7,0.2-3-0.4-3.8c-0.6-0.9-1.6-1.4-3.1-1.4l-5.7,0c-0.2-1.2-0.4-2.2-1-3
	c-0.5-0.9-1.3-1.7-2.3-2.2l10.8,0c2.9,0.1,5.1,1.1,6.3,3C54.3,21.4,54.6,24,54,27.3z"/>
</svg>
