<?xml version="1.0" encoding="utf-8"?>
<!-- Generator: Adobe Illustrator 19.1.0, SVG Export Plug-In . SVG Version: 6.00 Build 0)  -->
<!DOCTYPE svg PUBLIC "-//W3C//DTD SVG 1.1//EN" "http://www.w3.org/Graphics/SVG/1.1/DTD/svg11.dtd">
<svg version="1.1" id="Layer_1" xmlns="http://www.w3.org/2000/svg" xmlns:xlink="http://www.w3.org/1999/xlink" x="0px" y="0px"
	 viewBox="0 0 140 140" enable-background="new 0 0 140 140" xml:space="preserve">
<g>
	<rect x="0" y="0" fill="#FF4543" width="140" height="140"/>
	<g>
		<path fill="#FFFFFF" d="M29.1,25h10.3v16.8h15.3V25H65v42H54.7V50.6H39.4V67H29.1V25z"/>
		<path fill="#FFFFFF" d="M90.1,24.5c12.7,0,22,9.4,22,21.4c0,12.3-9.3,22-22,22c-12.7,0-22-9.6-22-22
			C68.1,33.9,77.4,24.5,90.1,24.5z M90.1,58.5c6.3,0,11.3-5.4,11.3-12.6c0-6.9-5.1-12-11.3-12c-6.3,0-11.3,5.2-11.3,12
			C78.8,53.1,83.8,58.5,90.1,58.5z"/>
		<path fill="#FFFFFF" d="M47,69.8c12.7,0,22,9.4,22,21.4c0,12.3-9.3,22-22,22s-22-9.6-22-22C25.1,79.2,34.4,69.8,47,69.8z
			 M47,103.8c6.3,0,11.3-5.4,11.3-12.6c0-6.9-5.1-12-11.3-12c-6.3,0-11.3,5.2-11.3,12C35.7,98.4,40.8,103.8,47,103.8z"/>
		<path fill="#FFFFFF" d="M92.5,70c10.7,0,16.2,5.6,16.2,5.6l-4.9,7.7c0,0-4.3-3.9-10.2-3.9c-8.8,0-12.4,5.6-12.4,11.9
			c0,8,5.5,12.7,12,12.7c4.9,0,8.5-3.1,8.5-3.1v-3.2h-5.9v-8.8h15v23.7h-8.6v-1.2c0-0.9,0.1-1.8,0.1-1.8h-0.1c0,0-4.1,3.6-11,3.6
			c-10.7,0-20.6-8-20.6-21.8C70.5,79.4,79.7,70,92.5,70z"/>
		<g>
			<path d="M115.7,102.9h9.6v9.6h-9.6V102.9z"/>
		</g>
	</g>
</g>
</svg>
