<svg xmlns="http://www.w3.org/2000/svg" xml:space="preserve" viewBox="0 0 1426.227 198.507"><path fill="var(--nubikk-logo-color, #fff)" d="M38.132 195.261V52.471h.54L91.95 195.26h53.818V.005h-38.133v135.219h-.54L55.168.005H0v195.256ZM382.927.005v135.76c0 21.635-8.114 33.534-25.962 33.534-14.874 0-25.152-9.466-25.152-33.534V.005h-40.836V138.47c0 36.78 21.636 60.038 66.528 60.038 49.762 0 66.258-30.831 66.258-60.038V.005ZM610.08 109.803h23.799c20.553 0 27.044 10.546 27.044 27.856 0 27.313-19.472 27.584-28.127 27.584H610.08zm0-79.779h25.151c13.792 0 23.528 10.547 23.528 24.88 0 18.93-12.44 24.88-21.365 24.88H610.08Zm31.371 165.237c17.308 0 60.308-2.164 60.308-51.653 0-26.773-7.572-45.433-36.51-49.49v-.542c22.177-4.327 33.265-20.552 33.265-42.999 0-41.648-25.692-50.572-56.792-50.572h-72.478v195.256ZM886.455.005h-40.836v195.256h40.836zm184.968 83.566h-.54V.005h-40.838v195.256h40.838V95.2h.54l46.786 100.062h45.974l-54.628-107.634L1164.183.005h-44.892zm262.044 0h-.542V.005h-40.836v195.256h40.836V95.2h.542l46.786 100.062h45.974L1371.6 87.627 1426.227.005h-44.894l-47.866 83.566"></path></svg>