<?xml version="1.0" encoding="utf-8"?>
<svg xmlns="http://www.w3.org/2000/svg" width="144" height="40" viewBox="0 0 144 40" fill="none">
<g clip-path="url(#clip0_420_4039)">
<path d="M-0.000244141 20.0032C-0.000244141 8.95754 8.95406 0.00323486 19.9998 0.00323486H124C135.045 0.00323486 144 8.95754 144 20.0032V20.0032C144 31.0489 135.045 40.0032 124 40.0032H19.9998C8.95406 40.0032 -0.000244141 31.0489 -0.000244141 20.0032V20.0032Z" fill="#1A2B8F"/>
<path d="M32.6367 29.6098V22.3966C32.6367 21.3393 32.6091 20.1462 32.2028 19.3324C31.8504 18.6276 31.1725 18.329 30.3048 18.329C29.3014 18.329 28.2166 18.9256 27.5117 19.9559C27.5931 20.6608 27.647 21.4201 27.647 22.2069V29.6098H23.7965V22.3966C23.7965 21.3393 23.7965 20.1187 23.3627 19.3055C23.0103 18.6276 22.3593 18.3296 21.5461 18.3296C20.5965 18.3296 19.5123 18.9261 18.8069 19.7393V29.6098H14.9564V15.3462H18.2917L18.5627 17.0814C19.7014 15.6442 21.2745 15.0207 22.6848 15.0207C24.3117 15.0207 25.9931 15.9697 26.7249 17.4069C28.0538 15.5089 29.9249 15.0207 31.4705 15.0207C33.016 15.0207 34.3175 15.7256 35.2126 16.8648C36.3243 18.3021 36.4871 20.1462 36.4871 22.2069V29.6098H32.6367Z" fill="white"/>
<path d="M53.5949 22.478C53.5949 26.6809 50.4768 29.9353 46.1376 29.9353C41.7983 29.9353 38.6533 26.6814 38.6533 22.478C38.6533 18.2746 41.7714 15.0207 46.1376 15.0207C50.5037 15.0207 53.5949 18.2746 53.5949 22.478ZM46.1376 18.3296C44.0229 18.3296 42.5851 20.1462 42.5851 22.4786C42.5851 24.8109 44.0224 26.6276 46.1376 26.6276C48.2527 26.6276 49.6631 24.8109 49.6631 22.4786C49.6631 20.1462 48.2527 18.3296 46.1376 18.3296Z" fill="white"/>
<path d="M59.6877 10.0861V16.8379C60.7181 15.509 62.5078 15.0213 63.8906 15.0213C67.6871 15.0213 70.5341 18.3835 70.5341 22.5325C70.5341 26.6815 67.7141 29.9353 63.8636 29.9353C62.3725 29.9353 60.474 29.4202 59.4436 27.8746L59.1725 29.6098H55.8373V10.0861H59.6877ZM59.6877 25.0815C60.6367 26.2207 61.7754 26.627 62.996 26.627C65.4636 26.627 66.6023 24.4305 66.6023 22.4242C66.6023 20.309 65.2734 18.3296 63.0499 18.3296C61.8298 18.3296 60.5278 18.8179 59.6877 20.2276V25.0815Z" fill="white"/>
<path d="M76.7111 15.874H72.8607V29.6098H76.7111V15.874Z" fill="white"/>
<path d="M82.8992 23.4276C83.1702 25.38 84.4447 26.8442 86.4785 26.8442C88.3227 26.8442 89.2717 26.0849 90.1937 24.729L92.7158 26.4373C91.0889 28.7966 89.2717 29.9353 86.2081 29.9353C81.8963 29.9353 78.9949 26.925 78.9949 22.6407C78.9949 18.3565 82.1404 15.0207 86.235 15.0207C90.3295 15.0207 93.1227 17.8138 93.1227 21.6098C93.1227 22.1794 93.0413 22.8574 92.933 23.4264H82.8997L82.8992 23.4276ZM89.1903 20.7972C89.1089 19.0889 87.9158 18.031 86.3427 18.031C84.4986 18.031 83.4952 19.1972 83.0889 20.7972H89.1903Z" fill="white"/>
<path d="M99.2968 10.0861H95.4464V29.6098H99.2968V10.0861Z" fill="white"/>
<path d="M106.475 25.5697H102.326V29.6098H106.475V25.5697Z" fill="white"/>
<path d="M112.858 15.3468L113.156 17.2992C114.295 15.6992 116.003 15.0213 117.576 15.0213C119.148 15.0213 120.477 15.7537 121.372 16.8924C122.484 18.3296 122.647 20.1737 122.647 22.2075V29.6104H118.797V22.3972C118.797 21.3399 118.77 20.1468 118.363 19.333C118.01 18.6282 117.305 18.3296 116.465 18.3296C115.326 18.3296 114.078 18.9806 113.374 20.1462V29.6098H109.523V15.3462H112.858L112.858 15.3468Z" fill="#FF8717"/>
<path d="M129.57 10.0861H125.719V29.6098H129.57V10.0861Z" fill="#FF8717"/>
<path d="M76.7111 10.0861H72.8607V13.9353H76.7111V10.0861Z" fill="white"/>
</g>
<defs>
<clipPath id="clip0_420_4039">
<rect width="144" height="40" fill="white" transform="translate(-0.000244141)"/>
</clipPath>
</defs>
</svg>