<svg version="1.1" id="Layer_1" xmlns="http://www.w3.org/2000/svg" xmlns:xlink="http://www.w3.org/1999/xlink" x="0" y="0" viewBox="0 0 272 61" style="enable-background:new 0 0 272 61" xml:space="preserve"><style>.st0,.st4{enable-background:new}.st4{clip-path:url(#SVGID_4_)}.st10,.st11{clip-path:url(#SVGID_16_);fill:#9b9896}.st11{fill:#9f9d9b}.st20,.st21{clip-path:url(#SVGID_18_)}.st20{fill:#a3a19f}.st21{enable-background:new}.st31{clip-path:url(#SVGID_36_);fill:#9f9d9b}.st33{clip-path:url(#SVGID_18_);fill:#797675}.st35{clip-path:url(#SVGID_38_);enable-background:new}.st47,.st48,.st53{clip-path:url(#SVGID_50_);fill:#9b9896}.st48,.st53{fill:#9f9d9b}.st53{clip-path:url(#SVGID_56_)}.st61{clip-path:url(#SVGID_64_);enable-background:new}.st74,.st75{clip-path:url(#SVGID_76_);fill:#9b9896}.st75{fill:#9f9d9b}.st83,.st84{clip-path:url(#SVGID_88_);fill:#9b9896}.st84{fill:#9f9d9b}.st94{clip-path:url(#SVGID_90_);enable-background:new}.st103,.st107{clip-path:url(#SVGID_96_);fill:#a7a8a8}.st107{clip-path:url(#SVGID_102_)}.st116{fill:#a8a9a9}.st116,.st117,.st128{clip-path:url(#SVGID_104_)}.st117{enable-background:new}.st128{fill:#9b9b9b}.st134{clip-path:url(#SVGID_134_);fill:#a7a8a8}.st137{clip-path:url(#SVGID_136_);enable-background:new}.st143{clip-path:url(#SVGID_148_);fill:#a7a8a8}.st151,.st152{clip-path:url(#SVGID_136_);fill:#b9baba}.st152{fill:#a8a9a9}.st161{clip-path:url(#SVGID_154_);fill:#a7a8a8}.st166{clip-path:url(#SVGID_162_);enable-background:new}.st178,.st187{clip-path:url(#SVGID_174_);fill:#a7a8a8}.st187{clip-path:url(#SVGID_186_)}.st196{clip-path:url(#SVGID_188_);enable-background:new}.st208,.st212{clip-path:url(#SVGID_200_);fill:#a7a8a8}.st212{clip-path:url(#SVGID_206_)}.st223,.st224{clip-path:url(#SVGID_216_)}.st223{fill:#a8a9a9}.st224{enable-background:new}.st236,.st240{clip-path:url(#SVGID_228_);fill:#a7a8a8}.st240{clip-path:url(#SVGID_234_)}</style><g class="st0"><defs><path id="SVGID_1_" d="M76.695 11.813h9.699v24.239h-9.699z"/></defs><clipPath id="SVGID_2_"><use xlink:href="#SVGID_1_" style="overflow:visible"/></clipPath><path style="clip-path:url(#SVGID_2_);fill:#a3a19f" d="m85.591 11.815.804.816-.476 23.415-.803-.816z"/><path style="clip-path:url(#SVGID_2_);fill:#797675" d="m85.116 35.23.803.816-8.42.006-.803-.816z"/><path style="clip-path:url(#SVGID_2_);fill:#cdcaca" d="m77.186 11.813 8.405.002-.475 23.415-8.42.006z"/></g><g class="st0"><defs><path id="SVGID_3_" d="M76.655 2.927h10.494v7.588H76.655z"/></defs><clipPath id="SVGID_4_"><use xlink:href="#SVGID_3_" style="overflow:visible"/></clipPath><g class="st4"><defs><path id="SVGID_5_" d="M77.355 8.732h4.878v1.783h-4.878z"/></defs><clipPath id="SVGID_6_"><use xlink:href="#SVGID_5_" style="overflow:visible"/></clipPath><g style="clip-path:url(#SVGID_6_)"><defs><path id="SVGID_7_" d="m78.158 9.548-.804-.816c.694.705 1.966.965 4.075.967l.804.816c-2.108-.002-3.38-.262-4.075-.967"/></defs><clipPath id="SVGID_8_"><use xlink:href="#SVGID_7_" style="overflow:visible"/></clipPath><g style="clip-path:url(#SVGID_8_);enable-background:new"><defs><path id="SVGID_9_" d="M77.355 8.732h4.878v1.783h-4.878z"/></defs><clipPath id="SVGID_10_"><use xlink:href="#SVGID_9_" style="overflow:visible"/></clipPath><path d="m81.429 9.699.804.816c-2.108-.001-3.38-.261-4.075-.966l-.804-.816c.695.704 1.967.964 4.075.966" style="clip-path:url(#SVGID_10_);fill:#7f7b7a"/></g></g></g><g class="st4"><defs><path id="SVGID_11_" d="M81.429 3.896h5.721v6.618h-5.721z"/></defs><clipPath id="SVGID_12_"><use xlink:href="#SVGID_11_" style="overflow:visible"/></clipPath><g style="clip-path:url(#SVGID_12_)"><defs><path id="SVGID_13_" d="m85.655 3.896.803.816c.518.526.711 1.3.689 2.394-.052 2.609-1.212 3.41-4.915 3.409l-.804-.816c3.703.001 4.863-.799 4.915-3.409.023-1.094-.17-1.867-.688-2.394"/></defs><clipPath id="SVGID_14_"><use xlink:href="#SVGID_13_" style="overflow:visible"/></clipPath><g style="clip-path:url(#SVGID_14_);enable-background:new"><defs><path id="SVGID_15_" d="M81.429 3.896h5.721v6.618h-5.721z"/></defs><clipPath id="SVGID_16_"><use xlink:href="#SVGID_15_" style="overflow:visible"/></clipPath><path class="st10" d="m85.655 3.896.803.816c.033.034.064.068.094.103l-.804-.816a1.765 1.765 0 0 0-.093-.103"/><path class="st11" d="m85.749 3.999.804.816c.125.145.228.308.311.489l-.804-.816a2.075 2.075 0 0 0-.311-.489"/><path d="m86.06 4.488.804.816c.085.184.149.389.195.613l-.804-.816a2.822 2.822 0 0 0-.195-.613" style="clip-path:url(#SVGID_16_);fill:#a3a19f"/><path class="st11" d="m86.255 5.101.804.816c.071.346.098.74.089 1.189a7.708 7.708 0 0 1-.015.351l-.803-.816c.008-.113.012-.23.014-.351a5.42 5.42 0 0 0-.089-1.189"/><path class="st10" d="m86.33 6.641.804.816a5.162 5.162 0 0 1-.106.788l-.803-.816a5.26 5.26 0 0 0 .105-.788"/><path d="m86.224 7.429.803.816c-.033.15-.074.291-.122.423l-.804-.816c.049-.132.09-.273.123-.423" style="clip-path:url(#SVGID_16_);fill:#979492"/><path d="m86.102 7.852.804.816a2.712 2.712 0 0 1-.13.3l-.804-.816c.049-.095.091-.194.13-.3" style="clip-path:url(#SVGID_16_);fill:#918e8c"/><path d="m85.972 8.152.804.816a2.421 2.421 0 0 1-.143.243l-.804-.816c.052-.077.1-.157.143-.243" style="clip-path:url(#SVGID_16_);fill:#8b8887"/><path d="m85.829 8.395.804.816a1.936 1.936 0 0 1-.172.222l-.803-.816c.062-.069.119-.143.171-.222" style="clip-path:url(#SVGID_16_);fill:#878483"/><path d="m85.658 8.618.803.816a2.11 2.11 0 0 1-.25.241l-.804-.816c.091-.075.175-.155.251-.241" style="clip-path:url(#SVGID_16_);fill:#82807e"/><path d="m85.407 8.859.804.816c-.746.612-1.998.84-3.978.84l-.804-.816c1.98 0 3.233-.228 3.978-.84" style="clip-path:url(#SVGID_16_);fill:#7f7b7a"/></g></g></g><path d="M81.429 9.699c-3.703-.002-4.827-.803-4.772-3.415.053-2.555 1.208-3.357 4.896-3.357 3.719.003 4.843.803 4.791 3.363-.052 2.61-1.212 3.409-4.915 3.409" style="clip-path:url(#SVGID_4_);fill:#cdcaca"/></g><g class="st0"><defs><path id="SVGID_17_" d="M48.632 11.314h24.343v24.76H48.632z"/></defs><clipPath id="SVGID_18_"><use xlink:href="#SVGID_17_" style="overflow:visible"/></clipPath><path class="st20" d="m57.325 11.807.804.816-.032 1.488-.804-.816z"/><g class="st21"><defs><path id="SVGID_19_" d="M57.474 17.079h6.361v1.615h-6.361z"/></defs><clipPath id="SVGID_20_"><use xlink:href="#SVGID_19_" style="overflow:visible"/></clipPath><g style="clip-path:url(#SVGID_20_)"><defs><path id="SVGID_21_" d="m63.031 17.878.804.816c-.551-.56-1.452-.798-2.797-.798-.784 0-1.61.088-2.76.309l-.804-.816c1.149-.222 1.976-.309 2.759-.309 1.346 0 2.248.239 2.798.798"/></defs><clipPath id="SVGID_22_"><use xlink:href="#SVGID_21_" style="overflow:visible"/></clipPath><g style="clip-path:url(#SVGID_22_);enable-background:new"><defs><path id="SVGID_23_" d="M57.474 17.079h6.361v1.615h-6.361z"/></defs><clipPath id="SVGID_24_"><use xlink:href="#SVGID_23_" style="overflow:visible"/></clipPath><path d="m63.032 17.878.803.816c-.551-.56-1.452-.798-2.797-.798-.784 0-1.61.088-2.759.309l-.804-.816c1.149-.222 1.976-.309 2.759-.309 1.345 0 2.247.239 2.798.798" style="clip-path:url(#SVGID_24_);fill:#7f7b7a"/></g></g></g><g class="st21"><defs><path id="SVGID_25_" d="M70.414 13.305h1.083v1.125h-1.083z"/></defs><clipPath id="SVGID_26_"><use xlink:href="#SVGID_25_" style="overflow:visible"/></clipPath><g style="clip-path:url(#SVGID_26_)"><defs><path id="SVGID_27_" d="m70.414 13.304.804.816c.099.1.192.203.28.309l-.804-.816a5.008 5.008 0 0 0-.28-.309"/></defs><clipPath id="SVGID_28_"><use xlink:href="#SVGID_27_" style="overflow:visible"/></clipPath><g style="clip-path:url(#SVGID_28_);enable-background:new"><defs><path id="SVGID_29_" d="M70.414 13.305h1.083v1.125h-1.083z"/></defs><clipPath id="SVGID_30_"><use xlink:href="#SVGID_29_" style="overflow:visible"/></clipPath><path d="m70.414 13.304.804.816a4.9 4.9 0 0 1 .231.251l-.803-.816a5.994 5.994 0 0 0-.232-.251" style="clip-path:url(#SVGID_30_);fill:#9b9896"/><path d="m70.646 13.556.803.816.048.058-.804-.816a2.391 2.391 0 0 0-.047-.058" style="clip-path:url(#SVGID_30_);fill:#9f9d9b"/></g></g></g><g class="st21"><defs><path id="SVGID_31_" d="M70.694 13.613h2.281v7.114h-2.281z"/></defs><clipPath id="SVGID_32_"><use xlink:href="#SVGID_31_" style="overflow:visible"/></clipPath><g style="clip-path:url(#SVGID_32_)"><defs><path id="SVGID_33_" d="m70.694 13.614.804.816c1.209 1.439 1.538 2.971 1.468 6.298l-.803-.816c.069-3.328-.26-4.859-1.469-6.298"/></defs><clipPath id="SVGID_34_"><use xlink:href="#SVGID_33_" style="overflow:visible"/></clipPath><g style="clip-path:url(#SVGID_34_);enable-background:new"><defs><path id="SVGID_35_" d="M70.694 13.613h2.281v7.114h-2.281z"/></defs><clipPath id="SVGID_36_"><use xlink:href="#SVGID_35_" style="overflow:visible"/></clipPath><path class="st31" d="m70.694 13.614.804.816c.334.398.601.802.811 1.25l-.804-.816a5.64 5.64 0 0 0-.811-1.25"/><path d="m71.505 14.864.804.816c.196.42.344.878.448 1.403l-.804-.816a6.093 6.093 0 0 0-.448-1.403" style="clip-path:url(#SVGID_36_);fill:#a3a19f"/><path class="st31" d="m71.953 16.266.804.816c.188.942.242 2.1.209 3.645l-.803-.816c.032-1.545-.022-2.703-.21-3.645"/></g></g></g><path class="st20" d="m57.474 17.389.804.816-.398 17.86-.804-.815z"/><path class="st33" d="m57.076 35.25.804.815-8.445.009-.803-.817z"/><path class="st20" d="m72.162 19.912.804.816-.327 15.326-.804-.816z"/><path d="M70.694 13.614c1.208 1.439 1.538 2.97 1.468 6.298l-.328 15.326-8.429.008.324-14.884c.052-2.384-.889-3.283-3.496-3.283-.784 0-1.61.087-2.759.309l-.398 17.862-8.444.007.539-23.452 8.154.002-.032 1.488a5.81 5.81 0 0 0 .594-.226c4.013-1.393 5.447-1.756 7.279-1.756 2.24.001 4.372.904 5.528 2.301" style="clip-path:url(#SVGID_18_);fill:#cdcaca"/><path class="st33" d="m71.835 35.238.804.816-8.43.008-.803-.816z"/></g><g class="st0"><defs><path id="SVGID_37_" d="M22.058 11.349h22.873v25.056H22.058z"/></defs><clipPath id="SVGID_38_"><use xlink:href="#SVGID_37_" style="overflow:visible"/></clipPath><g class="st35"><defs><path id="SVGID_39_" d="M24.45 16.53h11.98v1.638H24.45z"/></defs><clipPath id="SVGID_40_"><use xlink:href="#SVGID_39_" style="overflow:visible"/></clipPath><g style="clip-path:url(#SVGID_40_)"><defs><path id="SVGID_41_" d="m35.627 17.352.804.816c-.573-.582-1.638-.822-3.355-.822-2.677 0-5.246.228-7.822.635l-.803-.817a49.922 49.922 0 0 1 7.822-.634c1.715 0 2.781.24 3.354.822"/></defs><clipPath id="SVGID_42_"><use xlink:href="#SVGID_41_" style="overflow:visible"/></clipPath><g style="clip-path:url(#SVGID_42_);enable-background:new"><defs><path id="SVGID_43_" d="M24.45 16.53h11.98v1.638H24.45z"/></defs><clipPath id="SVGID_44_"><use xlink:href="#SVGID_43_" style="overflow:visible"/></clipPath><path d="m35.627 17.352.803.816c-.572-.582-1.638-.822-3.354-.822-2.677 0-5.246.228-7.822.635l-.803-.817a49.922 49.922 0 0 1 7.822-.634c1.715 0 2.781.24 3.354.822" style="clip-path:url(#SVGID_44_);fill:#7f7b7a"/></g></g></g><g class="st35"><defs><path id="SVGID_45_" d="M30.206 24.384h6.631v5.99h-6.631z"/></defs><clipPath id="SVGID_46_"><use xlink:href="#SVGID_45_" style="overflow:visible"/></clipPath><g style="clip-path:url(#SVGID_46_)"><defs><path id="SVGID_47_" d="m31.713 30.374-.804-.816c-.484-.492-.722-1.184-.701-2.061.059-2.394 1.361-3.066 5.826-3.113l.804.816c-4.465.047-5.767.719-5.827 3.113-.021.877.218 1.569.702 2.061"/></defs><clipPath id="SVGID_48_"><use xlink:href="#SVGID_47_" style="overflow:visible"/></clipPath><g style="clip-path:url(#SVGID_48_);enable-background:new"><defs><path id="SVGID_49_" d="M30.206 24.384h6.631v5.99h-6.631z"/></defs><clipPath id="SVGID_50_"><use xlink:href="#SVGID_49_" style="overflow:visible"/></clipPath><path d="m36.034 24.384.804.816c-2.622.027-4.153.27-4.983.951l-.803-.817c.829-.68 2.36-.922 4.982-.95" style="clip-path:url(#SVGID_50_);fill:#7f7b7a"/><path d="m31.052 25.335.803.816a2.114 2.114 0 0 0-.241.231l-.803-.816a1.96 1.96 0 0 1 .241-.231" style="clip-path:url(#SVGID_50_);fill:#82807e"/><path d="m30.811 25.566.803.816a1.853 1.853 0 0 0-.159.206l-.804-.816c.049-.072.102-.141.16-.206" style="clip-path:url(#SVGID_50_);fill:#878483"/><path d="m30.651 25.772.804.816c-.047.07-.09.143-.129.219l-.804-.816c.04-.076.083-.149.129-.219" style="clip-path:url(#SVGID_50_);fill:#8b8887"/><path d="m30.523 25.991.804.816c-.043.082-.08.17-.113.261l-.804-.816a2.36 2.36 0 0 1 .113-.261" style="clip-path:url(#SVGID_50_);fill:#918e8c"/><path d="m30.41 26.252.804.816a2.991 2.991 0 0 0-.106.365l-.803-.816c.028-.128.063-.25.105-.365" style="clip-path:url(#SVGID_50_);fill:#979492"/><path class="st47" d="m30.304 26.617.803.816a4.275 4.275 0 0 0-.087.646l-.803-.816c.015-.232.044-.447.087-.646"/><path class="st48" d="m30.218 27.264.803.816a5.8 5.8 0 0 0-.01.233 3.73 3.73 0 0 0 .065.817l-.803-.816a3.733 3.733 0 0 1-.065-.818 5.83 5.83 0 0 1 .01-.232"/><path d="m30.273 28.314.803.816c.044.217.108.418.194.602l-.804-.816a2.669 2.669 0 0 1-.193-.602" style="clip-path:url(#SVGID_50_);fill:#a3a19f"/><path class="st48" d="m30.466 28.917.804.816c.089.191.2.365.333.522l-.803-.816a2.287 2.287 0 0 1-.334-.522"/><path class="st47" d="m30.8 29.439.803.816c.035.041.071.081.109.119l-.804-.816a2.415 2.415 0 0 1-.108-.119"/></g></g></g><g class="st35"><defs><path id="SVGID_51_" d="M42.291 13.42h2.641v7.355h-2.641z"/></defs><clipPath id="SVGID_52_"><use xlink:href="#SVGID_51_" style="overflow:visible"/></clipPath><g style="clip-path:url(#SVGID_52_)"><defs><path id="SVGID_53_" d="m42.291 13.42.804.816c1.353 1.374 1.903 3.493 1.832 6.539l-.804-.816c.069-3.046-.48-5.165-1.832-6.539"/></defs><clipPath id="SVGID_54_"><use xlink:href="#SVGID_53_" style="overflow:visible"/></clipPath><g style="clip-path:url(#SVGID_54_);enable-background:new"><defs><path id="SVGID_55_" d="M42.291 13.42h2.641v7.355h-2.641z"/></defs><clipPath id="SVGID_56_"><use xlink:href="#SVGID_55_" style="overflow:visible"/></clipPath><path d="m42.291 13.42.804.816c.085.085.166.174.244.266l-.803-.816a6.172 6.172 0 0 0-.245-.266" style="clip-path:url(#SVGID_56_);fill:#9b9896"/><path class="st53" d="m42.535 13.686.803.816c.323.378.593.806.814 1.287l-.803-.816a5.497 5.497 0 0 0-.814-1.287"/><path d="m43.349 14.974.803.816c.235.512.414 1.084.54 1.721l-.804-.816a7.72 7.72 0 0 0-.539-1.721" style="clip-path:url(#SVGID_56_);fill:#a3a19f"/><path class="st53" d="m43.889 16.695.804.816c.188.943.262 2.028.233 3.264l-.804-.816c.029-1.237-.045-2.321-.233-3.264"/></g></g></g><g class="st35"><defs><path id="SVGID_57_" d="M24 33.589h12.885v2.816H24z"/></defs><clipPath id="SVGID_58_"><use xlink:href="#SVGID_57_" style="overflow:visible"/></clipPath><g style="clip-path:url(#SVGID_58_)"><defs><path id="SVGID_59_" d="M24.804 34.405 24 33.589c1.254 1.273 3.057 2 5.239 2 1.792.001 2.896-.321 6.843-1.906l.803.816c-3.946 1.585-5.05 1.906-6.842 1.906-2.182 0-3.985-.727-5.239-2"/></defs><clipPath id="SVGID_60_"><use xlink:href="#SVGID_59_" style="overflow:visible"/></clipPath><g style="clip-path:url(#SVGID_60_);enable-background:new"><defs><path id="SVGID_61_" d="M24 33.589h12.885v2.816H24z"/></defs><clipPath id="SVGID_62_"><use xlink:href="#SVGID_61_" style="overflow:visible"/></clipPath><path d="m36.082 33.683.803.816c-3.946 1.585-5.05 1.906-6.842 1.906-2.182 0-3.985-.726-5.239-1.999L24 33.589c1.254 1.273 3.057 2 5.239 2 1.792.001 2.896-.322 6.843-1.906" style="clip-path:url(#SVGID_62_);fill:#7f7b7a"/></g></g></g><path style="clip-path:url(#SVGID_38_);fill:#797675" d="m43.766 35.261.804.815-7.721.005-.804-.817z"/><path style="clip-path:url(#SVGID_38_);fill:#a3a19f" d="m44.122 19.959.804.816-.356 15.301-.804-.815z"/><path d="M35.105 11.349c6.689.003 9.162 2.35 9.017 8.61l-.356 15.302-7.721.003.037-1.581c-3.946 1.585-5.051 1.907-6.843 1.906-4.42 0-7.289-2.985-7.178-7.454.116-4.649 2.845-7.18 8.319-7.675a74.759 74.759 0 0 1 5.751-.229l.029-1.178c.044-1.843-1-2.523-3.889-2.523-2.677 0-5.246.229-7.822.634l.101-4.195c5.124-1.169 8.165-1.621 10.555-1.62m-1.521 19.082c.786-.001 1.66-.087 2.313-.271l.137-5.776c-4.465.047-5.767.718-5.826 3.113-.046 1.9 1.127 2.934 3.376 2.934" style="clip-path:url(#SVGID_38_);fill:#cdcaca"/></g><g class="st0"><defs><path id="SVGID_63_" d="M1.091 11.388H20.48v25.12H1.091z"/></defs><clipPath id="SVGID_64_"><use xlink:href="#SVGID_63_" style="overflow:visible"/></clipPath><g class="st61"><defs><path id="SVGID_65_" d="M3.239 23.699h3.952v2.816H3.239z"/></defs><clipPath id="SVGID_66_"><use xlink:href="#SVGID_65_" style="overflow:visible"/></clipPath><g style="clip-path:url(#SVGID_66_)"><defs><path id="SVGID_67_" d="m4.042 24.515-.804-.816c.774.786 1.817 1.442 3.149 2l.804.816c-1.332-.558-2.374-1.214-3.149-2"/></defs><clipPath id="SVGID_68_"><use xlink:href="#SVGID_67_" style="overflow:visible"/></clipPath><g style="clip-path:url(#SVGID_68_);enable-background:new"><defs><path id="SVGID_69_" d="M3.239 23.699h3.952v2.816H3.239z"/></defs><clipPath id="SVGID_70_"><use xlink:href="#SVGID_69_" style="overflow:visible"/></clipPath><path d="m6.387 25.699.804.816c-1.332-.558-2.375-1.214-3.149-2l-.804-.816c.775.786 1.817 1.442 3.149 2" style="clip-path:url(#SVGID_70_);fill:#7f7b7a"/></g></g></g><path style="clip-path:url(#SVGID_64_);fill:#a3a19f" d="m18.865 12.702.803.816-.108 4.329-.804-.816z"/><g class="st61"><defs><path id="SVGID_71_" d="M9.441 16.264H19.56v3.53H9.441z"/></defs><clipPath id="SVGID_72_"><use xlink:href="#SVGID_71_" style="overflow:visible"/></clipPath><g style="clip-path:url(#SVGID_72_)"><defs><path id="SVGID_73_" d="m10.608 19.794-.804-.816c-.288-.293-.374-.612-.362-1.043.029-1.177.954-1.67 3.086-1.67 1.983 0 4.354.265 6.228.767l.804.816c-1.874-.502-4.245-.767-6.228-.767-2.132 0-3.057.493-3.086 1.67-.012.431.074.75.362 1.043"/></defs><clipPath id="SVGID_74_"><use xlink:href="#SVGID_73_" style="overflow:visible"/></clipPath><g style="clip-path:url(#SVGID_74_);enable-background:new"><defs><path id="SVGID_75_" d="M9.441 16.264H19.56v3.53H9.441z"/></defs><clipPath id="SVGID_76_"><use xlink:href="#SVGID_75_" style="overflow:visible"/></clipPath><path d="m18.756 17.031.804.816c-1.874-.502-4.245-.767-6.228-.767-1.277 0-2.122.177-2.6.572l-.804-.816c.478-.395 1.323-.572 2.6-.572 1.983 0 4.354.265 6.228.767" style="clip-path:url(#SVGID_76_);fill:#7f7b7a"/><path d="m9.928 16.836.804.816a1.447 1.447 0 0 0-.149.143l-.803-.815c.045-.05.094-.098.148-.144" style="clip-path:url(#SVGID_76_);fill:#82807e"/><path d="m9.78 16.98.803.816c-.036.041-.07.084-.101.13l-.803-.816c.031-.046.064-.088.101-.13" style="clip-path:url(#SVGID_76_);fill:#878483"/><path d="m9.679 17.11.803.816a1.23 1.23 0 0 0-.077.132l-.803-.816a.967.967 0 0 1 .077-.132" style="clip-path:url(#SVGID_76_);fill:#8b8887"/><path d="m9.602 17.241.803.816a1.593 1.593 0 0 0-.064.147l-.804-.816c.019-.05.04-.099.065-.147" style="clip-path:url(#SVGID_76_);fill:#918e8c"/><path d="m9.537 17.389.804.816c-.021.059-.039.12-.053.184l-.804-.816c.014-.065.032-.125.053-.184" style="clip-path:url(#SVGID_76_);fill:#979492"/><path class="st74" d="m9.484 17.572.804.816c-.02.089-.033.184-.039.285l-.804-.816c.007-.1.02-.195.039-.285"/><path class="st75" d="m9.446 17.857.804.816c-.001.025-.003.051-.003.077a1.88 1.88 0 0 0 .031.435l-.803-.816a1.93 1.93 0 0 1-.029-.512"/><path d="m9.474 18.369.803.816c.019.09.046.176.084.258l-.804-.816a1.254 1.254 0 0 1-.083-.258" style="clip-path:url(#SVGID_76_);fill:#a3a19f"/><path class="st75" d="m9.557 18.626.804.816c.044.096.103.187.178.276l-.803-.817a1.147 1.147 0 0 1-.179-.275"/><path class="st74" d="m9.735 18.902.803.817c.022.024.045.05.07.075l-.804-.816a1.632 1.632 0 0 1-.069-.076"/></g></g></g><path style="clip-path:url(#SVGID_64_);fill:#797675" d="m9.527 26.965.804.816-3.14-1.266-.804-.816z"/><g class="st61"><defs><path id="SVGID_77_" d="M9.527 26.965h2.372v1.72H9.527z"/></defs><clipPath id="SVGID_78_"><use xlink:href="#SVGID_77_" style="overflow:visible"/></clipPath><g style="clip-path:url(#SVGID_78_)"><defs><path id="SVGID_79_" d="m11.095 27.87.804.816c-.3-.305-.794-.579-1.568-.904l-.804-.816c.775.325 1.268.599 1.568.904"/></defs><clipPath id="SVGID_80_"><use xlink:href="#SVGID_79_" style="overflow:visible"/></clipPath><g style="clip-path:url(#SVGID_80_);enable-background:new"><defs><path id="SVGID_81_" d="M9.527 26.965h2.372v1.72H9.527z"/></defs><clipPath id="SVGID_82_"><use xlink:href="#SVGID_81_" style="overflow:visible"/></clipPath><path d="m11.095 27.87.804.816c-.3-.305-.794-.579-1.568-.904l-.804-.816c.775.325 1.268.599 1.568.904" style="clip-path:url(#SVGID_82_);fill:#7f7b7a"/></g></g></g><g class="st61"><defs><path id="SVGID_83_" d="M1.091 23.003H20.48v13.505H1.091z"/></defs><clipPath id="SVGID_84_"><use xlink:href="#SVGID_83_" style="overflow:visible"/></clipPath><g style="clip-path:url(#SVGID_84_)"><defs><path id="SVGID_85_" d="m17.957 23.003.804.816c1.211 1.23 1.768 2.869 1.716 4.992-.123 4.887-3.874 7.69-10.279 7.697-2.447 0-4.645-.362-8.303-1.35l-.803-.816c3.657.988 5.855 1.349 8.302 1.349 6.406-.005 10.157-2.808 10.279-7.696.052-2.123-.505-3.762-1.716-4.992"/></defs><clipPath id="SVGID_86_"><use xlink:href="#SVGID_85_" style="overflow:visible"/></clipPath><g style="clip-path:url(#SVGID_86_);enable-background:new"><defs><path id="SVGID_87_" d="M1.091 23.003H20.48v13.505H1.091z"/></defs><clipPath id="SVGID_88_"><use xlink:href="#SVGID_87_" style="overflow:visible"/></clipPath><path class="st83" d="m17.957 23.003.804.816c.096.099.189.199.277.302l-.804-.816a6.558 6.558 0 0 0-.277-.302"/><path class="st84" d="m18.234 23.305.804.816c.33.387.603.811.819 1.273l-.804-.816a5.635 5.635 0 0 0-.819-1.273"/><path d="m19.052 24.578.804.816c.206.443.361.921.464 1.437l-.804-.816a6.282 6.282 0 0 0-.464-1.437" style="clip-path:url(#SVGID_88_);fill:#a3a19f"/><path class="st84" d="m19.517 26.015.804.816c.122.607.173 1.266.155 1.98a8.3 8.3 0 0 1-.016.357l-.803-.816c.007-.117.012-.237.015-.356a8.969 8.969 0 0 0-.155-1.981"/><path class="st83" d="m19.657 28.352.803.816a8.34 8.34 0 0 1-.181 1.297l-.804-.816c.093-.413.153-.846.182-1.297"/><path d="m19.476 29.649.804.816a7.17 7.17 0 0 1-.269.925l-.804-.816c.108-.296.198-.605.269-.925" style="clip-path:url(#SVGID_88_);fill:#979492"/><path d="m19.207 30.574.804.816a6.755 6.755 0 0 1-.331.763l-.804-.816c.124-.244.235-.499.331-.763" style="clip-path:url(#SVGID_88_);fill:#918e8c"/><path d="m18.876 31.337.804.816c-.123.24-.258.47-.408.691l-.803-.815c.149-.222.285-.453.407-.692" style="clip-path:url(#SVGID_88_);fill:#8b8887"/><path d="m18.469 32.029.803.815c-.16.237-.335.463-.526.679l-.804-.816c.191-.216.366-.442.527-.678" style="clip-path:url(#SVGID_88_);fill:#878483"/><path d="m17.942 32.707.804.816a6.88 6.88 0 0 1-.786.757l-.804-.816c.285-.235.548-.487.786-.757" style="clip-path:url(#SVGID_88_);fill:#82807e"/><path d="m17.157 33.464.804.816c-1.759 1.447-4.394 2.225-7.763 2.228-2.447 0-4.645-.362-8.303-1.35l-.803-.816c3.657.988 5.855 1.349 8.302 1.349 3.369-.003 6.004-.779 7.763-2.227" style="clip-path:url(#SVGID_88_);fill:#7f7b7a"/></g></g></g><path d="M14.968 21.18c3.283 1.22 4.789 3.386 4.704 6.815-.122 4.887-3.874 7.691-10.279 7.696-2.447 0-4.645-.361-8.302-1.349l.114-4.343c2.428.58 4.628.853 6.886.853 2.447-.001 3.377-.497 3.411-1.805.026-.958-.377-1.409-1.974-2.081l-3.14-1.267c-3.464-1.45-4.972-3.564-4.886-6.908.128-4.737 3.596-7.403 9.521-7.403 2.083 0 4.009.316 7.842 1.314l-.109 4.329c-1.874-.502-4.245-.767-6.228-.767-2.132 0-3.058.493-3.086 1.67-.027.945.421 1.353 2.426 2.118l3.1 1.128z" style="clip-path:url(#SVGID_64_);fill:#cdcaca"/></g><path d="M18.703 17.01c-1.879-.503-4.26-.767-6.247-.766-2.117-.001-3.047.492-3.077 1.669-.029.945.419 1.353 2.425 2.118l3.103 1.126c3.286 1.22 4.792 3.386 4.704 6.816-.127 4.889-3.887 7.693-10.302 7.695-2.44.001-4.642-.36-8.31-1.353l.121-4.342c2.431.581 4.635.854 6.896.854 2.444 0 3.377-.496 3.411-1.804.027-.958-.375-1.41-1.974-2.082l-3.142-1.267c-3.464-1.45-4.97-3.563-4.88-6.905.135-4.737 3.614-7.401 9.551-7.398 2.065-.001 3.992.314 7.832 1.312l-.111 4.327zM36.006 24.362c-4.474.046-5.779.718-5.84 3.114-.047 1.903 1.13 2.937 3.386 2.936.783 0 1.66-.086 2.314-.27l.14-5.78zm.007 10.888.037-1.582c-3.957 1.585-5.063 1.907-6.859 1.905-4.426.001-7.301-2.988-7.186-7.46.12-4.649 2.855-7.181 8.338-7.675a74.59 74.59 0 0 1 5.762-.229l.031-1.178c.044-1.844-1.001-2.523-3.896-2.523a49.984 49.984 0 0 0-7.835.634l.105-4.193c5.129-1.17 8.176-1.622 10.57-1.622 6.702.001 9.18 2.348 9.034 8.609l-.359 15.312-7.742.002zM49.175 11.782h8.176l-.032 1.489c.278-.089.508-.185.595-.226 4.024-1.393 5.462-1.757 7.3-1.757 2.245-.001 4.387.903 5.548 2.3 1.214 1.439 1.545 2.972 1.477 6.302l-.317 15.348-8.463.003.319-14.9c.051-2.387-.894-3.285-3.511-3.285-.785 0-1.613.088-2.766.31l-.395 17.878-8.472.005.541-23.467zM77.275 11.785h8.438l-.451 23.45-8.459.002zM86.462 6.257c-.049 2.611-1.213 3.412-4.93 3.411-3.717-.001-4.846-.802-4.792-3.415.051-2.559 1.212-3.36 4.927-3.359 3.716.002 4.844.802 4.795 3.363"/><g><path d="M1.019 57.739c1.644.378 2.714.537 3.787.54 2.104.01 3.106-.713 3.113-2.264.003-.899-.41-1.511-1.43-2.09L3.801 52.43C2 51.415 1.242 50.249 1.247 48.543c.007-2.653 1.854-4.201 5.007-4.194 1.048.004 2.058.211 3.851.763l-.003 1.663c-1.227-.355-2.404-.559-3.505-.562-1.859-.006-2.739.646-2.746 2.03-.004.877.478 1.406 1.943 2.192l2.208 1.195c1.815.97 2.607 2.196 2.6 4.033-.011 2.834-2.015 4.551-5.275 4.536-1.009 0-2.321-.245-4.311-.766l.003-1.694zm21.276-4.355-2.061-6.509-2.079 6.494 4.14.015zm-3.149-8.786 2.871.008 5.274 15.478-2.828-.015-1.633-4.924-5.228-.019-1.58 4.919-2.45-.007 5.574-15.44zm12.039.038 3.503.01 6.376 12.591.043-12.568 2.129.007-.05 15.457-3.356-.012-6.512-12.81-.039 12.789-2.143-.007.049-15.457zm17.428.058 2.717.008-.05 15.46-2.721-.01.054-15.458zm11.03 1.847-4.336-.012.004-1.813 11.394.037-.007 1.813-4.336-.016-.047 13.644-2.713-.006.041-13.647zm16.836 7.02-2.061-6.508-2.079 6.494 4.14.014zm-3.145-8.787 2.868.01 5.274 15.479-2.828-.012-1.629-4.93-5.232-.017-1.572 4.918-2.451-.007 5.57-15.441zm12.039.041 2.717.009-.05 15.456-2.721-.007.054-15.458zm12.307 6.801c1.9.006 2.867-.865 2.874-2.616.008-1.774-.82-2.522-2.792-2.529l-1.647-.003-.015 5.144 1.58.004zm-4.226-6.775 4.376.014c2.129.008 3.046.164 3.855.646 1.087.68 1.636 1.754 1.63 3.2-.003 2.392-1.287 3.743-3.823 4.107l5.213 7.527-3.312-.009-4.707-7.286-.589-.003-.025 7.272-2.668-.01.05-15.458zm13.252 8.517 5.585.018-.004 2.102-5.584-.016.003-2.104zm13.267-6.619-4.337-.011.007-1.815 11.386.039-.003 1.811-4.341-.014-.042 13.644-2.716-.012.046-13.642zm19.771.046-6.016-.022-.021 4.74 4.775.014-.004 1.794-4.774-.014-.018 5.338 6.394.022-.006 1.793-9.107-.03.049-15.457 8.737.029-.009 1.793zm16.182.404a16.567 16.567 0 0 0-3.591-.428c-3.837-.012-5.817 2.063-5.831 6.07-.01 4.099 1.698 5.941 5.481 5.956.436 0 1.12-.066 1.534-.152l.018-5.234 2.564.006-.026 6.535c-2.781.619-3.705.746-4.864.741-5.01-.016-7.542-2.557-7.524-7.573.018-5.212 3.042-8.297 8.123-8.281 1.142.004 2.019.169 4.119.763l-.003 1.597zm13.915-.306-6.015-.02-.015 4.736 4.772.016-.007 1.795-4.771-.014-.018 5.339 6.397.021-.008 1.797-9.111-.033.05-15.455 8.733.027-.007 1.791zm4.694-1.774 2.717.007-.051 13.642 5.524.02-.007 1.814-8.235-.027.052-15.456zm13.901 7.817c-.015 4.074 1.381 6.091 4.229 6.098 2.803.01 4.276-2.125 4.293-6.244.012-3.991-1.412-6.013-4.232-6.02-2.781-.01-4.276 2.137-4.29 6.166m11.351-.378c-.018 5.257-2.642 8.36-7.065 8.345-4.601-.015-7.132-2.811-7.114-7.804.018-5.099 2.7-8.198 7.083-8.187 4.507.018 7.107 2.804 7.096 7.646m7.128-7.332-.035 10.132c-.007 2.563 1.045 3.705 3.432 3.712 2.364.01 3.441-1.144 3.451-3.772l.033-10.05 2.364.009-.031 9.566c-.005 2.408-.318 3.484-1.309 4.529-1.074 1.135-2.565 1.66-4.715 1.65-4.026-.012-5.952-1.856-5.937-5.692l.031-10.092 2.716.008zm17.332 1.867-4.332-.013.007-1.811 11.387.035-.008 1.812-4.333-.012-.043 13.641-2.721-.004.043-13.648zm11.038-1.777 2.721.009-.043 13.641 5.517.02-.006 1.816-8.242-.028.053-15.458zm21.018 1.862-6.027-.021-.013 4.738 4.775.017-.007 1.794-4.775-.018-.017 5.342 6.397.022-.007 1.793-9.112-.029.05-15.458 8.744.03-.008 1.79zm7.636.045-4.34-.015.007-1.811 11.394.039-.007 1.812-4.34-.016-.042 13.646-2.717-.008.045-13.647z" style="fill:#181716"/></g><g><g class="st0"><defs><path id="SVGID_89_" d="M201.921 11.461h25.549v25.53h-25.549z"/></defs><clipPath id="SVGID_90_"><use xlink:href="#SVGID_89_" style="overflow:visible"/></clipPath><g class="st94"><defs><path id="SVGID_91_" d="M210.284 16.267h7.388v15.041h-7.388z"/></defs><clipPath id="SVGID_92_"><use xlink:href="#SVGID_91_" style="overflow:visible"/></clipPath><g style="clip-path:url(#SVGID_92_)"><defs><path id="SVGID_93_" d="m216.672 17.102 1 1.01c-.564-.569-1.304-.835-2.239-.835-2.83 0-4.039 2.156-4.14 7.365-.069 3.476.349 5.593 1.412 6.666l-.999-1.01c-1.063-1.073-1.48-3.189-1.413-6.665.102-5.209 1.31-7.365 4.141-7.365.934-.001 1.674.264 2.238.834"/></defs><clipPath id="SVGID_94_"><use xlink:href="#SVGID_93_" style="overflow:visible"/></clipPath><g style="clip-path:url(#SVGID_94_);enable-background:new"><defs><path id="SVGID_95_" d="M210.284 16.267h7.388v15.041h-7.388z"/></defs><clipPath id="SVGID_96_"><use xlink:href="#SVGID_95_" style="overflow:visible"/></clipPath><path d="m216.672 17.102 1 1.01c-.563-.569-1.304-.835-2.239-.835-1.015 0-1.822.279-2.444.875l-1.001-1.01c.623-.597 1.43-.875 2.445-.875.935 0 1.675.265 2.239.835" style="clip-path:url(#SVGID_96_);fill:#9d9e9e"/><path d="m211.987 17.142 1 1.01c-.128.124-.25.261-.363.413l-1-1.009a3.32 3.32 0 0 1 .363-.414" style="clip-path:url(#SVGID_96_);fill:#9f9f9f"/><path d="m211.624 17.556 1 1.01a4.164 4.164 0 0 0-.305.475l-.999-1.01c.094-.172.195-.33.304-.475" style="clip-path:url(#SVGID_96_);fill:#a0a1a1"/><path d="m211.32 18.03.999 1.01a5.368 5.368 0 0 0-.293.632l-1-1.011c.089-.226.186-.437.294-.631" style="clip-path:url(#SVGID_96_);fill:#a2a3a3"/><path d="m211.026 18.662 1 1.01a7.985 7.985 0 0 0-.304.973l-1-1.01c.088-.354.188-.678.304-.973" style="clip-path:url(#SVGID_96_);fill:#a4a4a5"/><path d="m210.722 19.635 1 1.01a13.74 13.74 0 0 0-.318 1.956l-1-1.01c.072-.735.177-1.385.318-1.956" style="clip-path:url(#SVGID_96_);fill:#a5a6a6"/><path class="st103" d="m210.404 21.59 1.001 1.01c-.062.62-.099 1.301-.113 2.042a25.96 25.96 0 0 0 .073 2.754l-1.001-1.011a26.224 26.224 0 0 1-.072-2.753c.013-.742.05-1.422.112-2.042"/><path d="m210.364 26.385 1.001 1.01c.151 1.739.526 2.951 1.166 3.72l-1-1.01c-.64-.769-1.015-1.98-1.167-3.72" style="clip-path:url(#SVGID_96_);fill:#a9a9aa"/><path class="st103" d="m211.53 30.107 1 1.009c.056.067.114.131.174.192l-.999-1.01a3.168 3.168 0 0 1-.175-.191"/></g></g></g><g class="st94"><defs><path id="SVGID_97_" d="M204.892 14.625h22.577v22.366h-22.577z"/></defs><clipPath id="SVGID_98_"><use xlink:href="#SVGID_97_" style="overflow:visible"/></clipPath><g style="clip-path:url(#SVGID_98_)"><defs><path id="SVGID_99_" d="m223.498 14.625 1 1.01c1.994 2.013 3.039 4.934 2.967 8.603-.157 8.039-4.872 12.754-12.689 12.754-3.832 0-6.852-1.11-8.885-3.163l-.999-1.009c2.031 2.053 5.052 3.163 8.883 3.163 7.818 0 12.532-4.716 12.69-12.755.071-3.67-.972-6.59-2.967-8.603"/></defs><clipPath id="SVGID_100_"><use xlink:href="#SVGID_99_" style="overflow:visible"/></clipPath><g style="clip-path:url(#SVGID_100_);enable-background:new"><defs><path id="SVGID_101_" d="M204.892 14.625h22.577v22.366h-22.577z"/></defs><clipPath id="SVGID_102_"><use xlink:href="#SVGID_101_" style="overflow:visible"/></clipPath><path class="st107" d="m223.498 14.625 1 1.01c.185.186.363.381.53.583l-1-1.01a8.364 8.364 0 0 0-.53-.583"/><path d="m224.028 15.207 1 1.01c1.341 1.608 2.155 3.703 2.378 6.219l-1.001-1.01c-.222-2.516-1.037-4.61-2.377-6.219" style="clip-path:url(#SVGID_102_);fill:#a9a9aa"/><path class="st107" d="m226.406 21.426 1.001 1.01c.05.578.071 1.179.058 1.801-.01.52-.039 1.027-.088 1.519l-1-1.01c.048-.492.078-.999.088-1.52a16.802 16.802 0 0 0-.059-1.8"/><path d="m226.377 24.747 1 1.01a16.55 16.55 0 0 1-.395 2.347l-1-1.01c.183-.742.315-1.525.395-2.347" style="clip-path:url(#SVGID_102_);fill:#a5a6a6"/><path d="m225.982 27.093 1 1.01a13.549 13.549 0 0 1-.545 1.723l-1.001-1.009a13.78 13.78 0 0 0 .546-1.724" style="clip-path:url(#SVGID_102_);fill:#a4a4a5"/><path d="m225.436 28.818 1.001 1.009a12.3 12.3 0 0 1-.662 1.414l-.999-1.011c.246-.447.466-.918.66-1.412" style="clip-path:url(#SVGID_102_);fill:#a2a3a3"/><path d="m224.776 30.23.999 1.011c-.247.448-.521.875-.82 1.274l-.999-1.009c.298-.402.572-.827.82-1.276" style="clip-path:url(#SVGID_102_);fill:#a0a1a1"/><path d="m223.956 31.505.999 1.009a10.25 10.25 0 0 1-1.128 1.276l-1-1.009c.409-.392.785-.818 1.129-1.276" style="clip-path:url(#SVGID_102_);fill:#9f9f9f"/><path d="m222.827 32.781 1 1.009c-2.166 2.08-5.241 3.2-9.051 3.2-3.832 0-6.851-1.11-8.885-3.163l-1-1.01c2.032 2.053 5.053 3.163 8.884 3.163 3.811.002 6.885-1.119 9.052-3.199" style="clip-path:url(#SVGID_102_);fill:#9d9e9e"/></g></g></g><path d="M214.615 11.461c7.59 0 11.994 4.357 11.85 11.766-.157 8.04-4.872 12.755-12.69 12.755-7.59 0-11.996-4.355-11.849-11.765.157-8.04 4.83-12.756 12.689-12.756m-.474 19.715c2.648 0 3.861-2.29 3.96-7.365.104-5.345-.976-7.544-3.669-7.544-2.83 0-4.038 2.155-4.141 7.365-.106 5.433.974 7.544 3.85 7.544" style="clip-path:url(#SVGID_90_);fill:#b9baba"/></g><g class="st0"><defs><path id="SVGID_103_" d="M230.049 11.55h38.487v24.859h-38.487z"/></defs><clipPath id="SVGID_104_"><use xlink:href="#SVGID_103_" style="overflow:visible"/></clipPath><path class="st116" d="m238.496 12.043 1 1.011-.028 1.483-1.002-1.01z"/><g class="st117"><defs><path id="SVGID_105_" d="M238.658 17.3h6.57v1.723h-6.57z"/></defs><clipPath id="SVGID_106_"><use xlink:href="#SVGID_105_" style="overflow:visible"/></clipPath><g style="clip-path:url(#SVGID_106_)"><defs><path id="SVGID_107_" d="m244.227 18.013 1.001 1.01c-.51-.516-1.392-.713-2.778-.713-.721 0-1.844.134-2.792.314l-1-1.01c.947-.181 2.07-.315 2.791-.315 1.386.001 2.268.198 2.778.714"/></defs><clipPath id="SVGID_108_"><use xlink:href="#SVGID_107_" style="overflow:visible"/></clipPath><g style="clip-path:url(#SVGID_108_);enable-background:new"><defs><path id="SVGID_109_" d="M238.658 17.3h6.57v1.723h-6.57z"/></defs><clipPath id="SVGID_110_"><use xlink:href="#SVGID_109_" style="overflow:visible"/></clipPath><path d="m244.227 18.013 1.001 1.01c-.51-.516-1.392-.713-2.779-.713-.72 0-1.844.134-2.791.314l-1-1.01c.947-.181 2.07-.315 2.791-.315 1.386.001 2.268.198 2.778.714" style="clip-path:url(#SVGID_110_);fill:#9d9e9e"/></g></g></g><g class="st117"><defs><path id="SVGID_111_" d="M251.343 13.368h1.151v1.169h-1.151z"/></defs><clipPath id="SVGID_112_"><use xlink:href="#SVGID_111_" style="overflow:visible"/></clipPath><g style="clip-path:url(#SVGID_112_)"><defs><path id="SVGID_113_" d="m251.343 13.368.999 1.01c.052.052.102.105.152.159l-1.001-1.01c-.05-.054-.099-.107-.15-.159"/></defs><clipPath id="SVGID_114_"><use xlink:href="#SVGID_113_" style="overflow:visible"/></clipPath><g style="clip-path:url(#SVGID_114_);enable-background:new"><defs><path id="SVGID_115_" d="M251.343 13.368h1.151v1.169h-1.151z"/></defs><clipPath id="SVGID_116_"><use xlink:href="#SVGID_115_" style="overflow:visible"/></clipPath><path d="m251.343 13.368.999 1.01c.052.052.102.105.152.159l-1.001-1.009a5.765 5.765 0 0 0-.15-.16" style="clip-path:url(#SVGID_116_);fill:#a7a8a8"/></g></g></g><g class="st117"><defs><path id="SVGID_117_" d="M253.026 17.66h1.072v2.537h-1.072z"/></defs><clipPath id="SVGID_118_"><use xlink:href="#SVGID_117_" style="overflow:visible"/></clipPath><g style="clip-path:url(#SVGID_118_)"><defs><path id="SVGID_119_" d="m253.026 17.66 1 1.01c.083.404.081.537.061 1.527l-1.001-1.01c.02-.99.022-1.124-.06-1.527"/></defs><clipPath id="SVGID_120_"><use xlink:href="#SVGID_119_" style="overflow:visible"/></clipPath><g style="clip-path:url(#SVGID_120_);enable-background:new"><defs><path id="SVGID_121_" d="M253.026 17.66h1.072v2.537h-1.072z"/></defs><clipPath id="SVGID_122_"><use xlink:href="#SVGID_121_" style="overflow:visible"/></clipPath><path d="m253.026 17.66 1 1.01c.03.142.047.251.06.376l-1.001-1.01a3.445 3.445 0 0 0-.059-.376" style="clip-path:url(#SVGID_122_);fill:#a9a9aa"/><path d="m253.084 18.036 1.001 1.01c.019.229.013.51.001 1.15l-1.001-1.01c.014-.639.02-.921-.001-1.15" style="clip-path:url(#SVGID_122_);fill:#a7a8a8"/></g></g></g><path class="st128" d="m238.309 35.4 1 1.01h-8.262l-.999-1.01z"/><path class="st116" d="m238.658 17.615 1 1.009-.349 17.786-1-1.01z"/><g class="st117"><defs><path id="SVGID_123_" d="M253.026 17.3h6.528v1.793h-6.528z"/></defs><clipPath id="SVGID_124_"><use xlink:href="#SVGID_123_" style="overflow:visible"/></clipPath><g style="clip-path:url(#SVGID_124_)"><defs><path id="SVGID_125_" d="m258.553 18.083 1 1.01c-.543-.548-1.424-.783-2.734-.783-.806 0-1.257.046-2.793.36l-1-1.01c1.534-.315 1.986-.36 2.793-.36 1.308 0 2.191.235 2.734.783"/></defs><clipPath id="SVGID_126_"><use xlink:href="#SVGID_125_" style="overflow:visible"/></clipPath><g style="clip-path:url(#SVGID_126_);enable-background:new"><defs><path id="SVGID_127_" d="M253.026 17.3h6.528v1.793h-6.528z"/></defs><clipPath id="SVGID_128_"><use xlink:href="#SVGID_127_" style="overflow:visible"/></clipPath><path d="m258.553 18.084 1 1.009c-.543-.548-1.424-.783-2.734-.783-.806 0-1.257.046-2.793.36l-1-1.01c1.534-.315 1.986-.36 2.793-.36 1.308 0 2.191.235 2.734.784" style="clip-path:url(#SVGID_128_);fill:#9d9e9e"/></g></g></g><g class="st117"><defs><path id="SVGID_129_" d="M265.715 13.346h2.82v7.792h-2.82z"/></defs><clipPath id="SVGID_130_"><use xlink:href="#SVGID_129_" style="overflow:visible"/></clipPath><g style="clip-path:url(#SVGID_130_)"><defs><path id="SVGID_131_" d="m265.715 13.346.999 1.011c1.342 1.354 1.88 3.542 1.816 6.782l-1-1.01c.064-3.24-.475-5.428-1.815-6.783"/></defs><clipPath id="SVGID_132_"><use xlink:href="#SVGID_131_" style="overflow:visible"/></clipPath><g style="clip-path:url(#SVGID_132_);enable-background:new"><defs><path id="SVGID_133_" d="M265.715 13.346h2.82v7.792h-2.82z"/></defs><clipPath id="SVGID_134_"><use xlink:href="#SVGID_133_" style="overflow:visible"/></clipPath><path class="st134" d="m265.715 13.346.999 1.01c.102.102.198.209.29.32l-1.001-1.01a5.165 5.165 0 0 0-.288-.32"/><path d="m266.003 13.666 1.001 1.01c.835 1.011 1.301 2.417 1.464 4.288l-1.001-1.01c-.163-1.871-.63-3.278-1.464-4.288" style="clip-path:url(#SVGID_134_);fill:#a9a9aa"/><path class="st134" d="m267.467 17.954 1.001 1.01c.058.665.078 1.389.063 2.175l-1-1.01c.015-.786-.005-1.51-.064-2.175"/></g></g></g><path class="st128" d="m252.769 35.4.999 1.01h-8.26l-1-1.01z"/><path class="st116" d="m253.086 19.186 1.001 1.011-.319 16.213-.999-1.01zM267.53 20.129l1 1.01-.299 15.271-.998-1.01z"/><path d="M259.749 11.55c5.793 0 7.904 2.335 7.782 8.579l-.299 15.271h-8.264l.289-14.82c.047-2.382-.88-3.28-3.439-3.28-.807 0-1.258.046-2.793.36.082.403.08.537.06 1.526l-.316 16.214h-8.262l.3-15.316c.041-2.111-.798-2.784-3.359-2.784-.721 0-1.844.134-2.791.315l-.348 17.785h-8.261l.456-23.356h7.993l-.03 1.484c.273-.091.498-.179.634-.224 3.981-1.436 5.291-1.753 7.127-1.753 2.293 0 4.077.674 5.265 1.977 4.338-1.528 6.191-1.978 8.256-1.978" style="clip-path:url(#SVGID_104_);fill:#b9baba"/><path class="st128" d="m267.232 35.4.999 1.01h-8.263l-1-1.01z"/></g><g class="st0"><defs><path id="SVGID_135_" d="M173.26 11.686h27.779v25.217H173.26z"/></defs><clipPath id="SVGID_136_"><use xlink:href="#SVGID_135_" style="overflow:visible"/></clipPath><g class="st137"><defs><path id="SVGID_137_" d="M180.473 25.098h3.869v2.484h-3.869z"/></defs><clipPath id="SVGID_138_"><use xlink:href="#SVGID_137_" style="overflow:visible"/></clipPath><g style="clip-path:url(#SVGID_138_)"><defs><path id="SVGID_139_" d="m183.342 26.572 1 1.01c-.714-.72-1.67-1.211-2.868-1.474l-1.001-1.01c1.198.263 2.155.754 2.869 1.474"/></defs><clipPath id="SVGID_140_"><use xlink:href="#SVGID_139_" style="overflow:visible"/></clipPath><g style="clip-path:url(#SVGID_140_);enable-background:new"><defs><path id="SVGID_141_" d="M180.473 25.098h3.869v2.484h-3.869z"/></defs><clipPath id="SVGID_142_"><use xlink:href="#SVGID_141_" style="overflow:visible"/></clipPath><path d="m183.342 26.572 1 1.01c-.714-.72-1.67-1.211-2.868-1.474l-1.001-1.01c1.199.263 2.155.754 2.869 1.474" style="clip-path:url(#SVGID_142_);fill:#9d9e9e"/></g></g></g><g class="st137"><defs><path id="SVGID_143_" d="M174.331 28.115h9.367v8.788h-9.367z"/></defs><clipPath id="SVGID_144_"><use xlink:href="#SVGID_143_" style="overflow:visible"/></clipPath><g style="clip-path:url(#SVGID_144_)"><defs><path id="SVGID_145_" d="m181.636 28.115 1 1.01c.734.74 1.089 1.836 1.06 3.287-.057 2.918-1.749 4.491-4.85 4.491-1.576 0-2.749-.394-3.515-1.168l-1.001-1.011c.765.773 1.938 1.168 3.515 1.168 3.1 0 4.792-1.574 4.851-4.491.028-1.449-.327-2.545-1.06-3.286"/></defs><clipPath id="SVGID_146_"><use xlink:href="#SVGID_145_" style="overflow:visible"/></clipPath><g style="clip-path:url(#SVGID_146_);enable-background:new"><defs><path id="SVGID_147_" d="M174.331 28.115h9.367v8.788h-9.367z"/></defs><clipPath id="SVGID_148_"><use xlink:href="#SVGID_147_" style="overflow:visible"/></clipPath><path class="st143" d="m181.636 28.115.999 1.01c.064.064.125.132.184.201l-1-1.01a5.016 5.016 0 0 0-.183-.201"/><path d="m181.819 28.316 1 1.01c.483.581.767 1.35.852 2.304l-1.001-1.01c-.083-.954-.368-1.722-.851-2.304" style="clip-path:url(#SVGID_148_);fill:#a9a9aa"/><path class="st143" d="m182.671 30.621 1.001 1.01c.022.248.03.508.024.78a6.464 6.464 0 0 1-.031.549l-1-1.01a7.591 7.591 0 0 0 .006-1.329"/><path d="m182.664 31.95 1 1.01a5.541 5.541 0 0 1-.138.82l-.999-1.009c.063-.259.109-.533.137-.821" style="clip-path:url(#SVGID_148_);fill:#a5a6a6"/><path d="m182.527 32.77.999 1.01a4.926 4.926 0 0 1-.185.588l-1.001-1.01c.073-.185.135-.382.187-.588" style="clip-path:url(#SVGID_148_);fill:#a4a4a5"/><path d="m182.34 33.359 1.001 1.011a4.145 4.145 0 0 1-.224.475l-1-1.011a3.69 3.69 0 0 0 .223-.475" style="clip-path:url(#SVGID_148_);fill:#a2a3a3"/><path d="m182.117 33.834 1 1.011a3.431 3.431 0 0 1-.275.428l-1.001-1.01c.102-.135.193-.278.276-.429" style="clip-path:url(#SVGID_148_);fill:#a0a1a1"/><path d="m181.842 34.263 1.001 1.01a3.562 3.562 0 0 1-.385.436l-1.001-1.009c.14-.136.269-.281.385-.437" style="clip-path:url(#SVGID_148_);fill:#9f9f9f"/><path d="m181.456 34.7 1.001 1.009c-.818.786-2.032 1.194-3.611 1.194-1.576 0-2.749-.394-3.515-1.168l-1.001-1.011c.765.773 1.938 1.168 3.515 1.168 1.58.001 2.793-.406 3.611-1.192" style="clip-path:url(#SVGID_148_);fill:#9d9e9e"/></g></g></g><path class="st151" d="M178.112 26.957c3.099 0 4.641 1.481 4.583 4.445-.058 2.917-1.75 4.491-4.85 4.491-3.099 0-4.641-1.528-4.584-4.446.058-2.919 1.754-4.49 4.851-4.49"/><path class="st152" d="m200.038 12.809 1.001 1.01-.09 4.58-1.001-1.011z"/><g class="st137"><defs><path id="SVGID_149_" d="M188.819 16.94h12.13v12.781h-12.13z"/></defs><clipPath id="SVGID_150_"><use xlink:href="#SVGID_149_" style="overflow:visible"/></clipPath><g style="clip-path:url(#SVGID_150_)"><defs><path id="SVGID_151_" d="m191.348 29.721-1-1.01c-1.078-1.089-1.571-2.749-1.526-5.033.087-4.448 2.378-6.738 6.779-6.738 1.481 0 3.14.181 4.349.448l1.001 1.01c-1.208-.267-2.867-.449-4.35-.449-4.4 0-6.691 2.29-6.778 6.737-.046 2.286.445 3.945 1.525 5.035"/></defs><clipPath id="SVGID_152_"><use xlink:href="#SVGID_151_" style="overflow:visible"/></clipPath><g style="clip-path:url(#SVGID_152_);enable-background:new"><defs><path id="SVGID_153_" d="M188.819 16.94h12.13v12.781h-12.13z"/></defs><clipPath id="SVGID_154_"><use xlink:href="#SVGID_153_" style="overflow:visible"/></clipPath><path d="m199.948 17.388 1.001 1.01c-1.209-.267-2.867-.449-4.35-.449-2.158 0-3.809.551-4.942 1.638l-.999-1.01c1.132-1.087 2.784-1.638 4.942-1.638 1.481.001 3.14.182 4.348.449" style="clip-path:url(#SVGID_154_);fill:#9d9e9e"/><path d="m190.658 18.578.999 1.01a4.92 4.92 0 0 0-.544.616l-.999-1.01a4.92 4.92 0 0 1 .544-.616" style="clip-path:url(#SVGID_154_);fill:#9f9f9f"/><path d="m190.113 19.194.999 1.01a5.098 5.098 0 0 0-.399.624l-1.001-1.01c.121-.221.255-.429.401-.624" style="clip-path:url(#SVGID_154_);fill:#a0a1a1"/><path d="m189.713 19.818 1.001 1.01a6.112 6.112 0 0 0-.334.711l-1-1.009c.098-.251.208-.488.333-.712" style="clip-path:url(#SVGID_154_);fill:#a2a3a3"/><path d="m189.38 20.53 1 1.009a7.046 7.046 0 0 0-.284.902l-1-1.01c.077-.317.173-.618.284-.901" style="clip-path:url(#SVGID_154_);fill:#a4a4a5"/><path d="m189.096 21.431 1 1.01a9.023 9.023 0 0 0-.222 1.324l-.999-1.01c.045-.47.117-.911.221-1.324" style="clip-path:url(#SVGID_154_);fill:#a5a6a6"/><path class="st161" d="m188.874 22.754.999 1.01a12.65 12.65 0 0 0-.011 2.252l-1.001-1.01a12.668 12.668 0 0 1 .013-2.252"/><path d="m188.862 25.007 1.001 1.01c.127 1.446.531 2.58 1.23 3.423l-1.001-1.01c-.699-.843-1.103-1.978-1.23-3.423" style="clip-path:url(#SVGID_154_);fill:#a9a9aa"/><path class="st161" d="m190.092 28.43 1.001 1.01c.081.097.166.191.255.281l-1.001-1.01a4.856 4.856 0 0 1-.255-.281"/></g></g></g><g class="st137"><defs><path id="SVGID_155_" d="M184.528 33.804h16.089v2.963h-16.089z"/></defs><clipPath id="SVGID_156_"><use xlink:href="#SVGID_155_" style="overflow:visible"/></clipPath><g style="clip-path:url(#SVGID_156_)"><defs><path id="SVGID_157_" d="m199.616 34.365 1 1.009c-4.514 1.078-6.361 1.393-8.067 1.393-2.87 0-5.231-.672-7.023-1.954l-1-1.009c1.792 1.281 4.153 1.953 7.022 1.953 1.706 0 3.554-.314 8.068-1.392"/></defs><clipPath id="SVGID_158_"><use xlink:href="#SVGID_157_" style="overflow:visible"/></clipPath><g style="clip-path:url(#SVGID_158_);enable-background:new"><defs><path id="SVGID_159_" d="M184.528 33.804h16.089v2.963h-16.089z"/></defs><clipPath id="SVGID_160_"><use xlink:href="#SVGID_159_" style="overflow:visible"/></clipPath><path d="m199.616 34.365 1 1.009c-4.514 1.078-6.361 1.393-8.067 1.393-2.87 0-5.231-.672-7.023-1.954l-1-1.009c1.792 1.281 4.153 1.953 7.022 1.953 1.706 0 3.554-.314 8.068-1.392" style="clip-path:url(#SVGID_160_);fill:#9d9e9e"/></g></g></g><path class="st152" d="m199.702 29.965 1 1.01-.086 4.399-.999-1.009z"/><path class="st151" d="M193.098 11.686c1.839 0 3.228.224 6.941 1.123l-.09 4.579c-1.209-.267-2.867-.448-4.349-.448-4.401 0-6.692 2.29-6.779 6.738-.09 4.581 1.981 6.647 6.605 6.647 1.528 0 2.967-.136 4.276-.36l-.086 4.4c-4.514 1.078-6.362 1.392-8.067 1.392-2.869 0-5.229-.671-7.022-1.953a8.66 8.66 0 0 0 .368-2.413c.07-3.537-1.416-5.633-4.421-6.292-.013-.362-.021-.729-.013-1.106.145-7.456 5.137-12.307 12.637-12.307"/></g><g class="st0"><defs><path id="SVGID_161_" d="M90.028 11.641h19.089v25.172H90.028z"/></defs><clipPath id="SVGID_162_"><use xlink:href="#SVGID_161_" style="overflow:visible"/></clipPath><g class="st166"><defs><path id="SVGID_163_" d="M92.097 23.935h4.037v2.951h-4.037z"/></defs><clipPath id="SVGID_164_"><use xlink:href="#SVGID_163_" style="overflow:visible"/></clipPath><g style="clip-path:url(#SVGID_164_)"><defs><path id="SVGID_165_" d="m93.096 24.946-1.001-1.011c.755.762 1.762 1.4 3.039 1.941l1 1.01c-1.277-.541-2.283-1.178-3.038-1.94"/></defs><clipPath id="SVGID_166_"><use xlink:href="#SVGID_165_" style="overflow:visible"/></clipPath><g style="clip-path:url(#SVGID_166_);enable-background:new"><defs><path id="SVGID_167_" d="M92.097 23.935h4.037v2.951h-4.037z"/></defs><clipPath id="SVGID_168_"><use xlink:href="#SVGID_167_" style="overflow:visible"/></clipPath><path d="m95.134 25.876 1.001 1.01c-1.277-.541-2.283-1.179-3.039-1.941l-1.001-1.011c.756.763 1.762 1.401 3.039 1.942" style="clip-path:url(#SVGID_168_);fill:#9d9e9e"/></g></g></g><g class="st166"><defs><path id="SVGID_169_" d="M98.069 16.491h10.091v3.72H98.069z"/></defs><clipPath id="SVGID_170_"><use xlink:href="#SVGID_169_" style="overflow:visible"/></clipPath><g style="clip-path:url(#SVGID_170_)"><defs><path id="SVGID_171_" d="m99.443 20.212-1-1.01c-.291-.293-.38-.615-.371-1.05.022-1.167.929-1.66 2.994-1.66 1.932 0 4.262.27 6.094.763l1.001 1.01c-1.832-.494-4.162-.763-6.093-.763-2.066 0-2.972.493-2.995 1.66-.01.436.079.755.37 1.05"/></defs><clipPath id="SVGID_172_"><use xlink:href="#SVGID_171_" style="overflow:visible"/></clipPath><g style="clip-path:url(#SVGID_172_);enable-background:new"><defs><path id="SVGID_173_" d="M98.069 16.491h10.091v3.72H98.069z"/></defs><clipPath id="SVGID_174_"><use xlink:href="#SVGID_173_" style="overflow:visible"/></clipPath><path d="m107.159 17.255 1.001 1.01c-1.832-.494-4.162-.763-6.093-.763-1.294 0-2.133.193-2.586.625l-1-1.011c.452-.431 1.291-.625 2.585-.625 1.931 0 4.261.27 6.093.764" style="clip-path:url(#SVGID_174_);fill:#9d9e9e"/><path d="m98.481 17.117 1 1.01c-.051.05-.098.103-.141.159l-1-1.01c.041-.057.089-.109.141-.159" style="clip-path:url(#SVGID_174_);fill:#9f9f9f"/><path d="m98.34 17.276 1 1.01a1.316 1.316 0 0 0-.091.142l-1-1.01c.026-.05.057-.097.091-.142" style="clip-path:url(#SVGID_174_);fill:#a0a1a1"/><path d="m98.248 17.418 1 1.01a1.15 1.15 0 0 0-.07.151l-1-1.01c.02-.052.044-.103.07-.151" style="clip-path:url(#SVGID_174_);fill:#a2a3a3"/><path d="m98.178 17.569 1 1.01a1.347 1.347 0 0 0-.057.18l-1-1.011c.015-.062.034-.122.057-.179" style="clip-path:url(#SVGID_174_);fill:#a4a4a5"/><path d="m98.121 17.748 1 1.011a1.602 1.602 0 0 0-.04.24l-1-1.01c.008-.085.021-.164.04-.241" style="clip-path:url(#SVGID_174_);fill:#a5a6a6"/><path class="st178" d="m98.081 17.988 1 1.01a2.214 2.214 0 0 0-.002.411l-1-1.01c-.007-.078-.009-.161-.007-.247 0-.056.003-.11.009-.164"/><path d="m98.079 18.399 1 1.01c.024.274.106.5.279.709l-1.001-1.01a1.216 1.216 0 0 1-.278-.709" style="clip-path:url(#SVGID_174_);fill:#a9a9aa"/><path class="st178" d="m98.357 19.108 1.001 1.01c.026.032.054.063.085.094l-.999-1.01a1.49 1.49 0 0 1-.087-.094"/></g></g></g><path style="clip-path:url(#SVGID_162_);fill:#a8a9a9" d="m107.243 12.943 1.001 1.01-.084 4.312-1.001-1.01z"/><path style="clip-path:url(#SVGID_162_);fill:#9b9b9b" d="m98.208 27.136 1 1.009-3.073-1.258-1.001-1.011z"/><g class="st166"><defs><path id="SVGID_175_" d="M98.207 27.136h2.523v1.9h-2.523z"/></defs><clipPath id="SVGID_176_"><use xlink:href="#SVGID_175_" style="overflow:visible"/></clipPath><g style="clip-path:url(#SVGID_176_)"><defs><path id="SVGID_177_" d="m99.729 28.027 1.001 1.009c-.296-.299-.776-.57-1.521-.89l-1.001-1.01c.746.321 1.225.591 1.521.891"/></defs><clipPath id="SVGID_178_"><use xlink:href="#SVGID_177_" style="overflow:visible"/></clipPath><g style="clip-path:url(#SVGID_178_);enable-background:new"><defs><path id="SVGID_179_" d="M98.207 27.136h2.523v1.9h-2.523z"/></defs><clipPath id="SVGID_180_"><use xlink:href="#SVGID_179_" style="overflow:visible"/></clipPath><path d="m99.729 28.027 1.001 1.009c-.296-.299-.776-.57-1.522-.89l-1-1.01c.746.321 1.225.592 1.521.891" style="clip-path:url(#SVGID_180_);fill:#9d9e9e"/></g></g></g><g class="st166"><defs><path id="SVGID_181_" d="M90.028 23.16h19.089v13.653H90.028z"/></defs><clipPath id="SVGID_182_"><use xlink:href="#SVGID_181_" style="overflow:visible"/></clipPath><g style="clip-path:url(#SVGID_182_)"><defs><path id="SVGID_183_" d="m106.373 23.16 1 1.01c1.216 1.229 1.783 2.873 1.741 5.009-.095 4.849-3.744 7.634-9.985 7.634-2.38 0-4.529-.36-8.102-1.347l-1-1.01c3.572.987 5.722 1.347 8.102 1.347 6.241 0 9.89-2.785 9.985-7.634.042-2.137-.525-3.78-1.741-5.009"/></defs><clipPath id="SVGID_184_"><use xlink:href="#SVGID_183_" style="overflow:visible"/></clipPath><g style="clip-path:url(#SVGID_184_);enable-background:new"><defs><path id="SVGID_185_" d="M90.028 23.16h19.089v13.653H90.028z"/></defs><clipPath id="SVGID_186_"><use xlink:href="#SVGID_185_" style="overflow:visible"/></clipPath><path class="st187" d="m106.373 23.16 1 1.01c.119.12.233.245.339.373l-1-1.01a5.673 5.673 0 0 0-.339-.373"/><path d="m106.712 23.533 1 1.01c.792.952 1.243 2.128 1.369 3.557l-1.001-1.011c-.126-1.428-.577-2.604-1.368-3.556" style="clip-path:url(#SVGID_186_);fill:#a9a9aa"/><path class="st187" d="m108.08 27.09 1.001 1.01a10.237 10.237 0 0 1-.008 1.807l-1-1.01a10.221 10.221 0 0 0 .007-1.807"/><path d="m108.072 28.897 1 1.01c-.039.4-.105.785-.196 1.152l-1-1.009c.091-.369.157-.753.196-1.153" style="clip-path:url(#SVGID_186_);fill:#a5a6a6"/><path d="m107.876 30.049 1 1.009a7.202 7.202 0 0 1-.286.903l-1-1.01c.113-.289.209-.589.286-.902" style="clip-path:url(#SVGID_186_);fill:#a4a4a5"/><path d="m107.59 30.952 1 1.01a6.761 6.761 0 0 1-.367.784l-1.001-1.01c.139-.251.262-.512.368-.784" style="clip-path:url(#SVGID_186_);fill:#a2a3a3"/><path d="m107.222 31.736 1.001 1.01a6.752 6.752 0 0 1-.48.745l-1-1.009c.176-.239.336-.486.479-.746" style="clip-path:url(#SVGID_186_);fill:#a0a1a1"/><path d="m106.742 32.481 1 1.009c-.216.289-.457.56-.72.814l-1-1.01c.265-.254.504-.525.72-.813" style="clip-path:url(#SVGID_186_);fill:#9f9f9f"/><path d="m106.023 33.294 1 1.01c-1.7 1.631-4.387 2.508-7.894 2.508-2.38 0-4.529-.36-8.102-1.347l-1-1.01c3.572.987 5.722 1.347 8.102 1.347 3.506.001 6.195-.879 7.894-2.508" style="clip-path:url(#SVGID_186_);fill:#9d9e9e"/></g></g></g><path d="M99.591 11.641c2.018 0 3.898.314 7.652 1.302l-.084 4.312c-1.831-.493-4.161-.763-6.094-.763-2.065 0-2.971.494-2.994 1.66-.018.944.422 1.348 2.382 2.111l3.033 1.123c3.208 1.214 4.695 3.37 4.628 6.783-.095 4.849-3.744 7.634-9.985 7.634-2.38 0-4.53-.36-8.102-1.347l.085-4.312c2.366.584 4.519.851 6.718.851 2.382 0 3.289-.491 3.315-1.795.018-.941-.378-1.394-1.937-2.064l-3.074-1.259c-3.386-1.436-4.87-3.547-4.804-6.869.092-4.717 3.466-7.367 9.261-7.367" style="clip-path:url(#SVGID_162_);fill:#b9baba"/></g><g class="st0"><defs><path id="SVGID_187_" d="M110.446 11.595h22.539v25.127h-22.539z"/></defs><clipPath id="SVGID_188_"><use xlink:href="#SVGID_187_" style="overflow:visible"/></clipPath><g class="st196"><defs><path id="SVGID_189_" d="M112.725 16.761h11.918v1.814h-11.918z"/></defs><clipPath id="SVGID_190_"><use xlink:href="#SVGID_189_" style="overflow:visible"/></clipPath><g style="clip-path:url(#SVGID_190_)"><defs><path id="SVGID_191_" d="m123.644 17.565.999 1.01c-.564-.57-1.603-.804-3.271-.804-2.604 0-5.125.225-7.649.628l-1-1.01a48.165 48.165 0 0 1 7.649-.627c1.667-.001 2.708.233 3.272.803"/></defs><clipPath id="SVGID_192_"><use xlink:href="#SVGID_191_" style="overflow:visible"/></clipPath><g style="clip-path:url(#SVGID_192_);enable-background:new"><defs><path id="SVGID_193_" d="M112.725 16.761h11.918v1.814h-11.918z"/></defs><clipPath id="SVGID_194_"><use xlink:href="#SVGID_193_" style="overflow:visible"/></clipPath><path d="m123.644 17.565.999 1.01c-.564-.57-1.603-.804-3.271-.804-2.604 0-5.125.224-7.649.628l-1-1.01a48.168 48.168 0 0 1 7.65-.627c1.666-.001 2.707.233 3.271.803" style="clip-path:url(#SVGID_194_);fill:#9d9e9e"/></g></g></g><g class="st196"><defs><path id="SVGID_195_" d="M118.407 24.577h6.675v6.172h-6.675z"/></defs><clipPath id="SVGID_196_"><use xlink:href="#SVGID_195_" style="overflow:visible"/></clipPath><g style="clip-path:url(#SVGID_196_)"><defs><path id="SVGID_197_" d="m120.117 30.748-.999-1.01c-.486-.491-.727-1.185-.709-2.067.046-2.377 1.313-3.052 5.672-3.095l1.001 1.01c-4.359.043-5.626.718-5.674 3.095-.016.883.223 1.577.709 2.067"/></defs><clipPath id="SVGID_198_"><use xlink:href="#SVGID_197_" style="overflow:visible"/></clipPath><g style="clip-path:url(#SVGID_198_);enable-background:new"><defs><path id="SVGID_199_" d="M118.407 24.577h6.675v6.172h-6.675z"/></defs><clipPath id="SVGID_200_"><use xlink:href="#SVGID_199_" style="overflow:visible"/></clipPath><path d="m124.081 24.577 1 1.009c-2.668.027-4.178.29-4.958 1.036l-1-1.01c.779-.746 2.289-1.009 4.958-1.035" style="clip-path:url(#SVGID_200_);fill:#9d9e9e"/><path d="m119.123 25.612 1 1.01a2.03 2.03 0 0 0-.219.245l-.999-1.01c.065-.087.137-.169.218-.245" style="clip-path:url(#SVGID_200_);fill:#9f9f9f"/><path d="m118.905 25.857.999 1.01a2.077 2.077 0 0 0-.152.237l-1-1.01c.046-.083.096-.162.153-.237" style="clip-path:url(#SVGID_200_);fill:#a0a1a1"/><path d="m118.752 26.094 1 1.01a2.204 2.204 0 0 0-.124.264l-1.001-1.01c.037-.092.078-.18.125-.264" style="clip-path:url(#SVGID_200_);fill:#a2a3a3"/><path d="m118.628 26.358 1.001 1.01a2.554 2.554 0 0 0-.106.337l-1-1.01c.029-.119.064-.23.105-.337" style="clip-path:url(#SVGID_200_);fill:#a4a4a5"/><path d="m118.522 26.695 1 1.01c-.042.169-.072.35-.09.545l-1-1.01c.018-.194.049-.376.09-.545" style="clip-path:url(#SVGID_200_);fill:#a5a6a6"/><path class="st208" d="m118.432 27.24 1 1.01a5.859 5.859 0 0 0-.024.432c-.003.154.002.302.015.444l-1-1.01a5.368 5.368 0 0 1 .009-.876"/><path d="m118.422 28.116 1 1.01c.053.595.241 1.09.56 1.475l-.999-1.009c-.319-.387-.508-.881-.561-1.476" style="clip-path:url(#SVGID_200_);fill:#a9a9aa"/><path class="st208" d="m118.984 29.591.999 1.01c.043.051.088.1.134.147l-.999-1.01a2.065 2.065 0 0 1-.134-.147"/></g></g></g><g class="st196"><defs><path id="SVGID_201_" d="M130.132 13.619h2.852v7.565h-2.852z"/></defs><clipPath id="SVGID_202_"><use xlink:href="#SVGID_201_" style="overflow:visible"/></clipPath><g style="clip-path:url(#SVGID_202_)"><defs><path id="SVGID_203_" d="m130.133 13.619 1.001 1.01c1.354 1.368 1.907 3.491 1.847 6.555l-1.001-1.01c.06-3.064-.493-5.187-1.847-6.555"/></defs><clipPath id="SVGID_204_"><use xlink:href="#SVGID_203_" style="overflow:visible"/></clipPath><g style="clip-path:url(#SVGID_204_);enable-background:new"><defs><path id="SVGID_205_" d="M130.132 13.619h2.852v7.565h-2.852z"/></defs><clipPath id="SVGID_206_"><use xlink:href="#SVGID_205_" style="overflow:visible"/></clipPath><path class="st212" d="m130.133 13.619 1.001 1.01c.103.104.201.213.294.325l-1-1.01a5.685 5.685 0 0 0-.295-.325"/><path d="m130.428 13.944 1 1.01c.857 1.03 1.333 2.43 1.494 4.264l-1-1.009c-.16-1.834-.637-3.235-1.494-4.265" style="clip-path:url(#SVGID_206_);fill:#a9a9aa"/><path class="st212" d="m131.922 18.209 1 1.009c.053.608.072 1.262.059 1.966l-1.001-1.01a18.428 18.428 0 0 0-.058-1.965"/></g></g></g><g class="st196"><defs><path id="SVGID_207_" d="M112.405 33.766h12.765v2.957h-12.765z"/></defs><clipPath id="SVGID_208_"><use xlink:href="#SVGID_207_" style="overflow:visible"/></clipPath><g style="clip-path:url(#SVGID_208_)"><defs><path id="SVGID_209_" d="m113.405 34.776-.999-1.011c1.228 1.241 2.976 1.946 5.08 1.946 1.752 0 2.837-.312 6.686-1.886l1.001 1.01c-3.849 1.574-4.934 1.887-6.686 1.887-2.105 0-3.854-.706-5.082-1.946"/></defs><clipPath id="SVGID_210_"><use xlink:href="#SVGID_209_" style="overflow:visible"/></clipPath><g style="clip-path:url(#SVGID_210_);enable-background:new"><defs><path id="SVGID_211_" d="M112.405 33.766h12.765v2.957h-12.765z"/></defs><clipPath id="SVGID_212_"><use xlink:href="#SVGID_211_" style="overflow:visible"/></clipPath><path d="m124.171 33.825 1 1.01c-3.848 1.575-4.933 1.887-6.685 1.887-2.104 0-3.853-.706-5.081-1.947l-.999-1.01c1.228 1.24 2.976 1.946 5.08 1.946 1.751 0 2.836-.311 6.685-1.886" style="clip-path:url(#SVGID_212_);fill:#9d9e9e"/></g></g></g><path style="clip-path:url(#SVGID_188_);fill:#9b9b9b" d="m131.682 35.4 1 1.01h-7.542l-.999-1.01z"/><path style="clip-path:url(#SVGID_188_);fill:#a8a9a9" d="m131.979 20.174 1.002 1.01-.299 15.226-.999-1.01z"/><path d="M123.124 11.595c6.557 0 8.979 2.337 8.856 8.579l-.298 15.226h-7.541l.03-1.574c-3.849 1.574-4.934 1.886-6.686 1.886-4.31 0-7.126-2.962-7.04-7.409.091-4.625 2.744-7.141 8.099-7.635a73.713 73.713 0 0 1 5.616-.224l.024-1.167c.035-1.843-.984-2.515-3.812-2.515-2.605 0-5.125.224-7.649.627l.081-4.176c5.011-1.17 7.984-1.618 10.32-1.618m.844 18.729.113-5.748c-4.359.044-5.626.718-5.672 3.095-.037 1.889 1.111 2.919 3.31 2.919.763.001 1.621-.086 2.249-.266" style="clip-path:url(#SVGID_188_);fill:#b9baba"/></g><g class="st0"><defs><path id="SVGID_213_" d="M136.446.639h9.945v35.77h-9.945z"/></defs><clipPath id="SVGID_214_"><use xlink:href="#SVGID_213_" style="overflow:visible"/></clipPath><path style="clip-path:url(#SVGID_214_);fill:#a8a9a9" d="m145.391.639 1 1.009-.68 34.761-1-1.009z"/><path style="clip-path:url(#SVGID_214_);fill:#9b9b9b" d="m144.711 35.4 1 1.01h-8.267l-.999-1.01z"/><path style="clip-path:url(#SVGID_214_);fill:#b9baba" d="m145.391.639-.68 34.761h-8.265l.679-34.761z"/></g><g class="st0"><defs><path id="SVGID_215_" d="M148.655 11.595h23.052v25.172h-23.052z"/></defs><clipPath id="SVGID_216_"><use xlink:href="#SVGID_215_" style="overflow:visible"/></clipPath><path class="st223" d="m156.681 20.263 1 1.01-.016.853-1.001-1.01z"/><g class="st224"><defs><path id="SVGID_217_" d="M156.681 15.773h6.347v5.5h-6.347z"/></defs><clipPath id="SVGID_218_"><use xlink:href="#SVGID_217_" style="overflow:visible"/></clipPath><g style="clip-path:url(#SVGID_218_)"><defs><path id="SVGID_219_" d="m162.028 16.49 1 1.009c-.48-.485-1.15-.716-2.025-.716-2.108 0-3.263 1.527-3.322 4.489l-1-1.01c.058-2.963 1.214-4.489 3.323-4.489.873 0 1.544.232 2.024.717"/></defs><clipPath id="SVGID_220_"><use xlink:href="#SVGID_219_" style="overflow:visible"/></clipPath><g style="clip-path:url(#SVGID_220_);enable-background:new"><defs><path id="SVGID_221_" d="M156.681 15.773h6.347v5.5h-6.347z"/></defs><clipPath id="SVGID_222_"><use xlink:href="#SVGID_221_" style="overflow:visible"/></clipPath><path d="m162.028 16.49 1 1.009c-.48-.485-1.15-.716-2.025-.716-.869 0-1.578.26-2.113.774l-1-1.01c.534-.514 1.242-.774 2.113-.774.874.001 1.545.232 2.025.717" style="clip-path:url(#SVGID_222_);fill:#9d9e9e"/><path d="m157.89 16.547 1 1.01a2.926 2.926 0 0 0-.314.357l-.999-1.01c.096-.13.2-.249.313-.357" style="clip-path:url(#SVGID_222_);fill:#9f9f9f"/><path d="m157.576 16.904.999 1.01a3.243 3.243 0 0 0-.248.387l-1-1.01c.076-.138.16-.267.249-.387" style="clip-path:url(#SVGID_222_);fill:#a0a1a1"/><path d="m157.327 17.291 1 1.01a3.922 3.922 0 0 0-.222.475l-1-1.01a4.08 4.08 0 0 1 .222-.475" style="clip-path:url(#SVGID_222_);fill:#a2a3a3"/><path d="m157.107 17.766 1 1.01c-.079.202-.147.42-.205.652l-1-1.009c.056-.233.124-.451.205-.653" style="clip-path:url(#SVGID_222_);fill:#a4a4a5"/><path d="m156.9 18.418 1 1.009a7.34 7.34 0 0 0-.173 1.043l-1.001-1.01c.039-.375.096-.722.174-1.042" style="clip-path:url(#SVGID_222_);fill:#a5a6a6"/><path d="m156.727 19.461 1.001 1.01c-.025.254-.04.521-.047.801l-1-1.01c.007-.28.021-.547.046-.801" style="clip-path:url(#SVGID_222_);fill:#a7a8a8"/></g></g></g><g class="st224"><defs><path id="SVGID_223_" d="M156.574 25.564h2.11v4.596h-2.11z"/></defs><clipPath id="SVGID_224_"><use xlink:href="#SVGID_223_" style="overflow:visible"/></clipPath><g style="clip-path:url(#SVGID_224_)"><defs><path id="SVGID_225_" d="m158.683 30.159-1-1.011c-.802-.809-1.136-1.979-1.106-3.585l1 1.01c-.03 1.607.305 2.777 1.106 3.586"/></defs><clipPath id="SVGID_226_"><use xlink:href="#SVGID_225_" style="overflow:visible"/></clipPath><g style="clip-path:url(#SVGID_226_);enable-background:new"><defs><path id="SVGID_227_" d="M156.574 25.564h2.11v4.596h-2.11z"/></defs><clipPath id="SVGID_228_"><use xlink:href="#SVGID_227_" style="overflow:visible"/></clipPath><path class="st236" d="m156.577 25.564 1 1.01c-.006.334.003.649.029.945l-1-1.009a9.023 9.023 0 0 1-.029-.946"/><path d="m156.607 26.509 1 1.009c.089 1.013.373 1.815.887 2.431l-1.001-1.009c-.513-.616-.797-1.418-.886-2.431" style="clip-path:url(#SVGID_228_);fill:#a9a9aa"/><path class="st236" d="m157.493 28.941 1.001 1.009c.059.072.123.142.189.209l-1-1.011a3.084 3.084 0 0 1-.19-.207"/></g></g></g><g class="st224"><defs><path id="SVGID_229_" d="M168.026 14.239h3.681v12.334h-3.681z"/></defs><clipPath id="SVGID_230_"><use xlink:href="#SVGID_229_" style="overflow:visible"/></clipPath><g style="clip-path:url(#SVGID_230_)"><defs><path id="SVGID_231_" d="m168.026 14.239 1.001 1.01c.951.961 1.665 2.178 2.13 3.645.51 1.571.609 3.188.521 7.679l-1-1.01c.088-4.491-.012-6.108-.523-7.679-.464-1.466-1.177-2.684-2.129-3.645"/></defs><clipPath id="SVGID_232_"><use xlink:href="#SVGID_231_" style="overflow:visible"/></clipPath><g style="clip-path:url(#SVGID_232_);enable-background:new"><defs><path id="SVGID_233_" d="M168.026 14.239h3.681v12.334h-3.681z"/></defs><clipPath id="SVGID_234_"><use xlink:href="#SVGID_233_" style="overflow:visible"/></clipPath><path class="st240" d="m168.026 14.239 1.001 1.01c.159.161.312.329.457.504l-.999-1.01a8.468 8.468 0 0 0-.459-.504"/><path d="m168.484 14.744 1 1.01c.726.871 1.285 1.92 1.672 3.141.227.698.372 1.405.456 2.367l-1-1.01c-.084-.963-.23-1.67-.457-2.367-.386-1.222-.945-2.269-1.671-3.141" style="clip-path:url(#SVGID_234_);fill:#a9a9aa"/><path class="st240" d="m170.612 20.252 1 1.01c.106 1.206.115 2.815.065 5.312l-1-1.01c.051-2.497.041-4.106-.065-5.312"/></g></g></g><path style="clip-path:url(#SVGID_216_);fill:#9b9b9b" d="m170.678 25.564.999 1.01h-14.099l-1.001-1.01z"/><g class="st224"><defs><path id="SVGID_235_" d="M151.34 32.515h19.043v4.253H151.34z"/></defs><clipPath id="SVGID_236_"><use xlink:href="#SVGID_235_" style="overflow:visible"/></clipPath><g style="clip-path:url(#SVGID_236_)"><defs><path id="SVGID_237_" d="m152.34 33.525-1.001-1.01c.268.27.557.527.868.772 1.941 1.571 4.891 2.47 8.08 2.47 1.887 0 4.046-.314 9.097-1.347l1 1.011c-5.051 1.032-7.21 1.347-9.096 1.347-3.189 0-6.139-.899-8.08-2.47a9.828 9.828 0 0 1-.868-.773"/></defs><clipPath id="SVGID_238_"><use xlink:href="#SVGID_237_" style="overflow:visible"/></clipPath><g style="clip-path:url(#SVGID_238_);enable-background:new"><defs><path id="SVGID_239_" d="M151.34 32.515h19.043v4.253H151.34z"/></defs><clipPath id="SVGID_240_"><use xlink:href="#SVGID_239_" style="overflow:visible"/></clipPath><path d="m169.384 34.41 1 1.011c-5.051 1.032-7.21 1.347-9.096 1.347-3.189 0-6.139-.899-8.08-2.47a9.496 9.496 0 0 1-.867-.772l-1.001-1.01c.268.27.557.527.868.772 1.941 1.571 4.891 2.47 8.08 2.47 1.886-.001 4.045-.315 9.096-1.348" style="clip-path:url(#SVGID_240_);fill:#9d9e9e"/></g></g></g><path class="st223" d="m169.465 30.28 1 1.01-.081 4.131-1-1.012z"/><path d="M156.577 25.564c-.071 3.683 1.785 5.076 6.772 5.076 2.158 0 3.999-.09 6.115-.36l-.081 4.13c-5.051 1.034-7.21 1.348-9.097 1.348-3.187 0-6.139-.899-8.08-2.47-2.565-2.02-3.635-4.851-3.548-9.34.152-7.725 4.6-12.352 11.876-12.352 5.027 0 8.311 2.156 9.619 6.289.511 1.572.611 3.188.523 7.679h-14.099zm.104-5.301-.017.853h6.289l.007-.312.013-.675c.059-3.007-.86-4.355-2.97-4.355-2.107-.001-3.264 1.526-3.322 4.489" style="clip-path:url(#SVGID_216_);fill:#b9baba"/></g><path d="M226.589 23.168c-.116 8.1-4.839 12.852-12.709 12.853-7.639.001-12.092-4.387-11.981-11.846.121-8.094 4.798-12.842 12.703-12.847 7.638-.005 12.094 4.378 11.987 11.84m-16.277.415c-.081 5.472 1.017 7.597 3.91 7.597 2.666-.001 3.876-2.307 3.951-7.42.079-5.382-1.021-7.598-3.73-7.596-2.848.002-4.055 2.172-4.131 7.419M230.597 11.903l8.05-.006-.02 1.493c.272-.091.499-.181.635-.226 4.003-1.45 5.321-1.769 7.172-1.77 2.309-.002 4.111.676 5.315 1.987 4.365-1.54 6.23-1.995 8.313-1.997 5.839-.004 7.984 2.348 7.899 8.642l-.207 15.398-8.339.002.205-14.943c.033-2.4-.906-3.304-3.487-3.304-.813 0-1.267.047-2.811.364.083.407.082.542.067 1.539l-.226 16.344-8.329.001.215-15.437c.029-2.126-.819-2.805-3.4-2.804-.724.001-1.857.137-2.81.32l-.252 17.921-8.326.001.336-23.525zM195.502 16.853c1.492 0 3.157.18 4.375.449l.069-4.611c-3.737-.901-5.132-1.127-6.982-1.125-7.537.005-12.532 4.887-12.647 12.389-.006.38.003.749.018 1.114 3.022.661 4.523 2.771 4.47 6.331a8.776 8.776 0 0 1-.359 2.429c1.807 1.289 4.183 1.967 7.07 1.967 1.714 0 3.57-.317 8.106-1.403l.067-4.432a25.355 25.355 0 0 1-4.3.363c-4.651.001-6.741-2.078-6.672-6.689.069-4.474 2.362-6.779 6.785-6.782"/><linearGradient id="SVGID_241_" gradientUnits="userSpaceOnUse" x1="98.702" y1="11.585" x2="98.702" y2="35.855"><stop offset="0" style="stop-color:#e84662"/><stop offset=".071" style="stop-color:#e7364e"/><stop offset=".183" style="stop-color:#e52236"/><stop offset=".309" style="stop-color:#e41323"/><stop offset=".456" style="stop-color:#e30815"/><stop offset=".642" style="stop-color:#e2020d"/><stop offset="1" style="stop-color:#e2000b"/></linearGradient><path d="M106.764 17.218c-1.835-.496-4.169-.764-6.102-.764-2.068.001-2.975.498-2.994 1.67-.017.947.426 1.352 2.391 2.118l3.038 1.127c3.217 1.218 4.71 3.382 4.653 6.812-.082 4.873-3.729 7.673-9.981 7.674-2.384 0-4.536-.361-8.115-1.352l.074-4.332c2.372.586 4.526.855 6.729.854 2.384 0 3.291-.496 3.313-1.806.016-.946-.381-1.399-1.944-2.071l-3.079-1.265c-3.393-1.442-4.884-3.56-4.826-6.897.081-4.734 3.452-7.397 9.252-7.402 2.022-.001 3.903.313 7.664 1.303l-.073 4.331z" style="fill:url(#SVGID_241_)"/><linearGradient id="SVGID_242_" gradientUnits="userSpaceOnUse" x1="120.866" y1="11.525" x2="120.866" y2="35.763"><stop offset="0" style="stop-color:#e84662"/><stop offset=".071" style="stop-color:#e7364e"/><stop offset=".183" style="stop-color:#e52236"/><stop offset=".309" style="stop-color:#e41323"/><stop offset=".456" style="stop-color:#e30815"/><stop offset=".642" style="stop-color:#e2020d"/><stop offset="1" style="stop-color:#e2000b"/></linearGradient><path d="m123.83 35.445.025-1.581c-3.853 1.582-4.939 1.898-6.694 1.899-4.321.001-7.15-2.978-7.074-7.447.077-4.648 2.73-7.176 8.091-7.675a73.433 73.433 0 0 1 5.629-.228l.02-1.173c.03-1.851-.995-2.527-3.828-2.525-2.611.001-5.134.23-7.662.635l.071-4.195c5.015-1.176 7.991-1.628 10.33-1.63 6.573-.005 9.008 2.341 8.905 8.613l-.25 15.306-7.563.001zm-.092-10.88c-4.367.045-5.638.725-5.678 3.116-.032 1.896 1.123 2.933 3.328 2.933.765 0 1.624-.091 2.255-.27l.095-5.779z" style="fill:url(#SVGID_242_)"/><linearGradient id="SVGID_243_" gradientUnits="userSpaceOnUse" x1="140.596" y1=".5" x2="140.596" y2="35.444"><stop offset="0" style="stop-color:#e84662"/><stop offset=".071" style="stop-color:#e7364e"/><stop offset=".183" style="stop-color:#e52236"/><stop offset=".309" style="stop-color:#e41323"/><stop offset=".456" style="stop-color:#e30815"/><stop offset=".642" style="stop-color:#e2020d"/><stop offset="1" style="stop-color:#e2000b"/></linearGradient><path style="fill:url(#SVGID_243_)" d="M136.738.508 145.023.5l-.561 34.943-8.293.001z"/><linearGradient id="SVGID_244_" gradientUnits="userSpaceOnUse" x1="159.449" y1="11.5" x2="159.449" y2="35.802"><stop offset="0" style="stop-color:#e84662"/><stop offset=".071" style="stop-color:#e7364e"/><stop offset=".183" style="stop-color:#e52236"/><stop offset=".309" style="stop-color:#e41323"/><stop offset=".456" style="stop-color:#e30815"/><stop offset=".642" style="stop-color:#e2020d"/><stop offset="1" style="stop-color:#e2000b"/></linearGradient><path d="M169.232 34.445c-5.069 1.041-7.239 1.357-9.131 1.358-3.203 0-6.166-.905-8.123-2.485-2.581-2.031-3.665-4.878-3.592-9.394.124-7.766 4.569-12.419 11.872-12.424 5.048-.003 8.352 2.162 9.683 6.317.519 1.581.627 3.206.556 7.724l-14.159.005c-.059 3.705 1.812 5.106 6.819 5.104 2.166-.001 4.016-.092 6.141-.363l-.066 4.158zm-6.506-13.689.011-.677c.048-3.026-.881-4.38-2.997-4.378-2.118.001-3.271 1.535-3.318 4.516l-.014.859 6.315-.003.003-.317z" style="fill:url(#SVGID_244_)"/><linearGradient id="SVGID_245_" gradientUnits="userSpaceOnUse" x1="177.855" y1="26.94" x2="177.855" y2="35.936"><stop offset="0" style="stop-color:#e84662"/><stop offset=".071" style="stop-color:#e7364e"/><stop offset=".183" style="stop-color:#e52236"/><stop offset=".309" style="stop-color:#e41323"/><stop offset=".456" style="stop-color:#e30815"/><stop offset=".642" style="stop-color:#e2020d"/><stop offset="1" style="stop-color:#e2000b"/></linearGradient><path d="M182.595 31.413c-.045 2.938-1.74 4.522-4.855 4.522-3.114 0-4.669-1.537-4.623-4.474.046-2.938 1.742-4.521 4.853-4.521 3.115-.001 4.67 1.489 4.625 4.473" style="fill:url(#SVGID_245_)"/></g></svg>