<?xml version="1.0" encoding="UTF-8"?> <svg xmlns="http://www.w3.org/2000/svg" id="Laag_2" viewBox="0 0 427.91 110.84"><defs><style>.cls-1{fill:#0786d7;}</style></defs><g id="Laag_1-2"><g id="Laag_2-2"><g id="_Layer_1"><polygon class="cls-1" points="85.69 0 0 0 0 18.19 30.4 18.19 30.4 73.11 55.1 73.11 55.1 18.19 85.69 18.19 85.69 0"></polygon><rect class="cls-1" x="95.33" y="0" width="22.96" height="73.11"></rect><path class="cls-1" d="M221,0c4.22,0,7.83,1.87,10.84,5.61,3.05,3.87,4.64,8.69,4.5,13.61v53.89h-22.27V18.19h-21.07v54.92h-22.27V18.19h-21.13v54.92h-22.22V0h93.62Z"></path><path class="cls-1" d="M267.8,54.92h63.92v18.19h-70.72c-4.28,0-7.92-1.87-10.93-5.61-3.05-3.87-4.64-8.69-4.5-13.61V19.22c-.14-4.92,1.45-9.74,4.5-13.61C253.07,1.87,256.71,0,261,0h70.9V18.19h-64.1V54.92Z"></path><path class="cls-1" d="M412.17,0h-55.17c-4.35,0-8.02,1.87-11,5.61-3.05,3.87-4.64,8.69-4.5,13.61V53.89c-.14,4.92,1.45,9.74,4.5,13.61,3,3.74,6.67,5.61,11,5.61h55.2c4.39,.01,8.51-2.07,11.11-5.61,3.08-3.86,4.7-8.68,4.59-13.61V19.22c.11-4.93-1.51-9.75-4.59-13.61C420.71,2.07,416.57-.02,412.17,0Zm-6.62,54.92h-41.88V18.19h41.88V54.92Z"></path><polygon class="cls-1" points="378.01 110.79 378.01 101.14 386.79 110.82 397.47 110.82 385.72 98.8 397.13 88.3 388.2 88.3 378.01 98.12 378.01 88.27 371 88.27 371 110.79 378.01 110.79"></polygon><polygon class="cls-1" points="28.42 88.31 17.74 110.81 11.63 110.81 .94 88.31 8.83 88.31 14.65 101.41 20.54 88.31 28.42 88.31"></polygon><path class="cls-1" d="M54.81,88.31h-17c-1.33,0-2.58,.63-3.38,1.69-.93,1.19-1.42,2.68-1.38,4.19v10.67c-.04,1.52,.44,3,1.38,4.19,.79,1.08,2.06,1.73,3.4,1.73h17c1.35,0,2.63-.64,3.43-1.73,.95-1.19,1.44-2.67,1.41-4.19v-10.64c.03-1.53-.47-3.03-1.43-4.22-.8-1.09-2.08-1.72-3.43-1.72v.03Zm-2,16.9h-12.92v-11.3h12.89l.03,11.3Z"></path><path class="cls-1" d="M88.42,88.31h-17c-1.34-.02-2.62,.61-3.42,1.69-.93,1.19-1.42,2.68-1.38,4.19v10.67c-.05,1.53,.44,3.02,1.38,4.22,.79,1.08,2.05,1.72,3.39,1.73h17c1.35,0,2.62-.64,3.42-1.73,.95-1.19,1.46-2.67,1.42-4.19v-10.67c.05-1.53-.44-3.02-1.39-4.22-.8-1.09-2.07-1.73-3.42-1.72v.03Zm-2,16.9h-12.92v-11.3h12.89l.03,11.3Z"></path><path class="cls-1" d="M155.59,110.81c1.32-.01,2.56-.65,3.33-1.73,.95-1.19,1.44-2.67,1.41-4.19v-10.67c.04-1.53-.46-3.02-1.41-4.22-.77-1.07-2.01-1.71-3.33-1.72h-21.88v5.6h0v16.9l21.88,.03Zm-2.1-5.6h-12.94v-11.3h12.94v11.3Z"></path><path class="cls-1" d="M174,97h18.43v4.79h-18.43v3.38h19.8v5.64h-21.8c-1.33,0-2.58-.65-3.36-1.73-.94-1.19-1.44-2.67-1.39-4.19v-10.67c-.07-1.52,.41-3.02,1.34-4.22,.8-1.08,2.07-1.71,3.41-1.69h21.77v5.6h-19.77v3.09Z"></path><path class="cls-1" d="M207.68,97h18.43v4.79h-18.43v3.38h19.76v5.64h-21.85c-1.33,0-2.59-.65-3.37-1.73-.94-1.19-1.42-2.67-1.38-4.19v-10.67c-.05-1.53,.44-3.02,1.38-4.22,.79-1.08,2.04-1.72,3.37-1.72h21.76v5.6h-19.67v3.12Z"></path><path class="cls-1" d="M254,105.1h-12.57v-16.83h-6.93v16.52c-.05,1.54,.44,3.05,1.39,4.26,.79,1.09,2.04,1.75,3.39,1.76h16.78v-5.71h-2.06Z"></path><path class="cls-1" d="M292.06,88.31c1.32,0,2.56,.63,3.34,1.69,.93,1.19,1.42,2.68,1.38,4.19v16.59h-6.84v-16.87h-6.5v16.9h-6.84v-16.9h-6.5v16.9h-6.84v-22.5h28.8Z"></path><path class="cls-1" d="M314.56,98.84h-4.07v-4.93h12.78v4.93h-8.71Zm-4.07,4.78h12.78v7.19h6.78v-16.81c.04-1.45-.44-2.87-1.36-4-.77-1.07-2.01-1.71-3.33-1.72h-17c-1.33,0-2.58,.65-3.36,1.72-.93,1.19-1.42,2.68-1.38,4.19v16.59h6.84l.03-7.16Z"></path><polygon class="cls-1" points="427.87 88.31 401.5 88.31 401.5 93.91 410.85 93.91 410.85 110.81 418.46 110.81 418.46 93.91 427.87 93.91 427.87 88.31"></polygon><path class="cls-1" d="M344.28,93.73h11.94v3.77h-12.16l.2,5h7.74l4.48,8.34h7.66l-5.24-8.35c.75-.11,1.46-.36,2.11-.74,.56-.33,1.04-.76,1.42-1.28,.37-.51,.64-1.08,.8-1.68,.16-.63,.24-1.28,.24-1.93v-2.64c.04-1.54-.48-3.04-1.47-4.22-.84-1.1-2.15-1.73-3.53-1.72h-21.39v22.51h7.2v-17.06Z"></path><path class="cls-1" d="M107.83,93.73h11.94v3.77h-12.16l.2,5h7.71l4.48,8.34h7.66l-5.23-8.35c.74-.11,1.46-.36,2.11-.74,.55-.33,1.03-.76,1.41-1.28,.37-.51,.64-1.08,.8-1.68,.16-.63,.24-1.28,.24-1.93v-2.64c.04-1.54-.48-3.04-1.47-4.22-.84-1.08-2.15-1.71-3.52-1.69h-21.37v22.51h7.2v-17.09Z"></path></g></g></g></svg> 