<svg width="584" height="90" viewBox="0 0 584 90" fill="none" xmlns="http://www.w3.org/2000/svg">
<path d="M15.614 88.5282V23.7894H15.8351L37.6509 88.5277H59.6879V0.00212097H44.0735V61.3083H43.8524L22.5897 0.00212097H0V88.5282H15.614ZM156.798 0.00212097V61.5536C156.798 71.3626 153.475 76.7574 146.167 76.7574C140.077 76.7574 135.868 72.4657 135.868 61.5536V0.00212097H119.147V62.78C119.147 79.4555 128.006 90.0003 146.388 90.0003C166.764 90.0003 173.519 76.022 173.519 62.78V0.00212097H156.798ZM249.811 49.7828H259.556C267.972 49.7828 270.629 54.5642 270.629 62.4123C270.629 74.7956 262.656 74.9185 259.112 74.9185H249.811V49.7828ZM249.811 13.6123H260.109C265.757 13.6123 269.743 18.3941 269.743 24.8925C269.743 33.475 264.65 36.1727 260.995 36.1727H249.811V13.6123ZM262.656 88.5282C269.743 88.5282 287.351 87.547 287.351 65.1095C287.351 52.971 284.25 44.5109 272.401 42.6715V42.4258C281.482 40.464 286.022 33.1078 286.022 22.9307C286.022 4.04812 275.502 0.00212097 262.767 0.00212097H233.089V88.5282H262.656ZM362.978 0.00212097H346.257V88.5282H362.978V0.00212097ZM438.718 37.8897H438.497V0.00212097H421.775V88.5282H438.497V43.1621H438.718L457.875 88.5286H476.7L454.332 39.729L476.7 0.00212097H458.318L438.718 37.8897ZM546.017 37.8897H545.795V0.00212097H529.074V88.5282H545.795V43.1621H546.017L565.175 88.5286H584L561.632 39.7286L584 0.00212097H565.617L546.017 37.8897Z" fill="#FDFDFD"/>
</svg>
